<svg xmlns="http://www.w3.org/2000/svg" width="1410.33" height="525.229" viewBox="0 0 1410.33 525.229">
  <g id="Group_1545" data-name="Group 1545" transform="translate(3.328 -951.074)">
    <path id="Subtraction_5" data-name="Subtraction 5" d="M-10260.5,1276.041v-8.81c.978-1.089,1.979-2.221,2.975-3.363,43.7-50.1,68.929-109.977,75-177.979,7.272-81.5-12.69-176.2-59.335-281.455-6.72-15.164-14.086-30.749-21.9-46.321l3.071-5.113c8.634,17.058,16.724,34.086,24.047,50.611,47,106.05,67.1,201.532,59.758,283.795-6.14,68.8-31.666,129.381-75.87,180.058-2.515,2.882-5.121,5.768-7.747,8.576Z" transform="translate(10261 199.107)" fill="#009e54" stroke="rgba(0,0,0,0)" stroke-miterlimit="10" stroke-width="1"/>
    <path id="Subtraction_3" data-name="Subtraction 3" d="M-7064.5,237.64-8066.721,68.833l-.02.128-.468-.1-.148.415-2.715-.984-3.388-.442.007-.013c-23.137-3.063-46.072-5.4-68.166-6.931-22.06-1.532-43.839-2.309-64.734-2.309-15.814,0-31.538.447-46.734,1.329-15.159.88-30.172,2.22-44.622,3.982s-28.742,3.993-42.455,6.633c-13.752,2.65-27.289,5.774-40.236,9.286-15.77,4.278-31.27,9.295-46.07,14.911a456.7,456.7,0,0,0-43.028,18.891v-6.517c13.442-6.616,27.545-12.7,41.916-18.086,14.391-5.393,29.443-10.232,44.741-14.384,13.108-3.556,26.777-6.71,40.627-9.375,13.814-2.661,28.234-4.916,42.858-6.7,14.571-1.776,29.723-3.129,45.035-4.02,15.255-.891,31.12-1.342,47.154-1.342,21.261,0,43.429.8,65.888,2.373,22.482,1.577,45.83,3.974,69.4,7.123l.068-.327.366.093.124-.336,2.682,1.007,2.318.311v.007l.938.13-.04.117L-7064.5,232.289v5.349Z" transform="translate(8471 1224)" fill="#0064bf" stroke="rgba(0,0,0,0)" stroke-miterlimit="10" stroke-width="1"/>
  </g>
</svg>
