<svg xmlns="http://www.w3.org/2000/svg" width="185.452" height="30.546" viewBox="0 0 185.452 30.546"><defs><style>.a{fill:#3ca63d;}.b{fill:#4d4d4d;}</style></defs><g transform="translate(-341.084 -284.484)"><path class="a" d="M367.308,286.093c-2.025-.724-5.146-1.076-9.538-1.076h-6.507v29.79h9.692a18.8,18.8,0,0,0,8.581-1.619,12.547,12.547,0,0,0,5.061-5.066,15.687,15.687,0,0,0,1.939-7.854,16.015,16.015,0,0,0-2.439-8.9,13.03,13.03,0,0,0-6.788-5.277m5.17,14.214a11.117,11.117,0,0,1-1.753,6.363,8.943,8.943,0,0,1-4.771,3.548,30.968,30.968,0,0,1-8.068.707h-2.722V288.958h1.447a33.048,33.048,0,0,1,8.693.806,9.506,9.506,0,0,1,5.277,3.785,11.777,11.777,0,0,1,1.9,6.759" transform="translate(1.64 0.086)"/><path class="a" d="M398.5,302.546a11.957,11.957,0,0,0-2.441-7.576,11.035,11.035,0,0,0-9.086-4.333,10.692,10.692,0,0,0-8.855,4.237,12.167,12.167,0,0,0,.461,15.575,10.694,10.694,0,0,0,8.528,3.59,12.329,12.329,0,0,0,4.4-.743,11.1,11.1,0,0,0,3.525-2.169,12.547,12.547,0,0,0,2.716-3.745l.25-.5-3.261-1.74-.284.471a12.227,12.227,0,0,1-2.208,2.872,7.917,7.917,0,0,1-2.42,1.392,8.39,8.39,0,0,1-2.943.532,6.871,6.871,0,0,1-5.2-2.186,7.967,7.967,0,0,1-2.165-5.089H398.5Zm-18.516-2.913a7.97,7.97,0,0,1,2.049-3.37,7.112,7.112,0,0,1,4.959-1.86,7.9,7.9,0,0,1,3.366.748,7,7,0,0,1,2.552,1.94,7.734,7.734,0,0,1,1.273,2.542Z" transform="translate(5.548 0.991)"/><rect class="a" width="3.902" height="30.526" transform="translate(407.536 284.484)"/><path class="a" d="M427.627,302.546a11.957,11.957,0,0,0-2.441-7.576,11.035,11.035,0,0,0-9.086-4.333,10.692,10.692,0,0,0-8.855,4.237,12.167,12.167,0,0,0,.461,15.575,10.694,10.694,0,0,0,8.528,3.59,12.329,12.329,0,0,0,4.4-.743,11.1,11.1,0,0,0,3.525-2.169,12.547,12.547,0,0,0,2.716-3.745l.25-.5-3.262-1.74-.284.471a12.226,12.226,0,0,1-2.208,2.872,7.916,7.916,0,0,1-2.42,1.392,8.39,8.39,0,0,1-2.943.532,6.871,6.871,0,0,1-5.2-2.186,7.967,7.967,0,0,1-2.165-5.089h18.99Zm-18.516-2.913a7.97,7.97,0,0,1,2.049-3.37,7.112,7.112,0,0,1,4.959-1.86,7.9,7.9,0,0,1,3.366.748,7,7,0,0,1,2.552,1.94,7.734,7.734,0,0,1,1.273,2.542Z" transform="translate(10.241 0.991)"/><path class="b" d="M443.949,286.56q-2.915-1.043-9.343-1.043h-5.927v28.63h9.112a18.167,18.167,0,0,0,8.31-1.554,11.918,11.918,0,0,0,4.827-4.836,15.065,15.065,0,0,0,1.864-7.569,15.372,15.372,0,0,0-2.347-8.582,12.409,12.409,0,0,0-6.5-5.047m4.093,20.358a9.485,9.485,0,0,1-5.078,3.775,31.265,31.265,0,0,1-8.244.734h-3.3V288.3h2.027a33.431,33.431,0,0,1,8.861.83,10.035,10.035,0,0,1,5.588,4.015,12.289,12.289,0,0,1,2,7.085,11.647,11.647,0,0,1-1.853,6.69" transform="translate(14.111 0.166)"/><path class="b" d="M472.435,295.248a10.438,10.438,0,0,0-8.63-4.111,10.1,10.1,0,0,0-8.4,4.015,11.314,11.314,0,0,0-2.471,7.183,11.429,11.429,0,0,0,2.915,7.655,10.1,10.1,0,0,0,8.087,3.388,11.691,11.691,0,0,0,4.19-.706,10.472,10.472,0,0,0,3.34-2.055,11.954,11.954,0,0,0,2.586-3.572l-2.278-1.217a12.665,12.665,0,0,1-2.327,3.012,8.452,8.452,0,0,1-2.6,1.5,8.916,8.916,0,0,1-3.147.569,7.493,7.493,0,0,1-5.617-2.364,8.675,8.675,0,0,1-2.356-6.073h19.017a11.355,11.355,0,0,0-2.316-7.221m-16.41,4.885a9.138,9.138,0,0,1,2.451-4.382,7.741,7.741,0,0,1,5.348-2.009,8.439,8.439,0,0,1,3.61.8,7.52,7.52,0,0,1,2.761,2.1,8.967,8.967,0,0,1,1.583,3.484Z" transform="translate(18.02 1.072)"/><path class="b" d="M494.347,294.67a11.05,11.05,0,0,0-16.216.019,11.362,11.362,0,0,0,.164,15.378,10.359,10.359,0,0,0,7.944,3.311q5.946-.5,8.2-4.712v4.808h2.877q.038-.174,0-11.14a10.922,10.922,0,0,0-2.974-7.664m-.289,8.938q-3.147,8.438-10.6,6.777a9.619,9.619,0,0,1-4.218-3.592A8.606,8.606,0,0,1,478,302.374a8.393,8.393,0,0,1,2.434-6.063,7.808,7.808,0,0,1,5.81-2.509,7.629,7.629,0,0,1,5.753,2.509,8.506,8.506,0,0,1,1.486,2.124,14.406,14.406,0,0,1,.579,5.174" transform="translate(21.609 1.072)"/><rect class="b" width="2.741" height="29.365" transform="translate(523.795 285.065)"/><rect class="a" width="3.483" height="8.122" transform="translate(342.584 289.939)"/><path class="a" d="M344.514,301.178a3.284,3.284,0,0,0-3.43,3.253,3.5,3.5,0,0,0,3.43,3.433,3.285,3.285,0,0,0,3.437-3.253,3.5,3.5,0,0,0-3.437-3.433" transform="translate(0 2.689)"/></g></svg>