<svg id="paper" xmlns="http://www.w3.org/2000/svg" width="33" height="33" viewBox="0 0 33 33">
  <path id="Path_6926" data-name="Path 6926" d="M24.063,0H2.406A2.409,2.409,0,0,0,0,2.406V5.055A3.753,3.753,0,0,0,1.108,7.729l8.013,8.008a1.733,1.733,0,0,1,.5,1.215V27.844a1.028,1.028,0,0,0,.6.936,1.01,1.01,0,0,0,.43.095,1.027,1.027,0,0,0,.671-.249l3.851-3.3A3.772,3.772,0,0,0,16.5,22.454V16.981a1.728,1.728,0,0,1,.525-1.237l8.287-8a3.8,3.8,0,0,0,1.155-2.721V2.406A2.407,2.407,0,0,0,24.063,0Z" fill="#6e6969"/>
  <path id="Path_6927" data-name="Path 6927" d="M25.344,12H16.406A2.409,2.409,0,0,0,14,14.406V26.094A2.409,2.409,0,0,0,16.406,28.5h8.938a2.409,2.409,0,0,0,2.406-2.406V14.406A2.409,2.409,0,0,0,25.344,12Zm-2.75,11.688H19.156a1.031,1.031,0,0,1,0-2.062h3.438a1.031,1.031,0,0,1,0,2.063Zm0-4.125H19.156a1.031,1.031,0,0,1,0-2.062h3.438a1.031,1.031,0,0,1,0,2.063Z" transform="translate(5.25 4.5)" fill="#6e6969"/>
</svg>
