<svg xmlns="http://www.w3.org/2000/svg" width="163" height="163" viewBox="0 0 163 163">
  <g id="Group_1761" data-name="Group 1761" transform="translate(-186 -3265)">
    <circle id="Ellipse_3" data-name="Ellipse 3" cx="81.5" cy="81.5" r="81.5" transform="translate(186 3265)" fill="#bc3d0e"/>
    <g id="like_2_" data-name="like (2)" transform="translate(186.303 3269.672)">
      <circle id="Ellipse_1" data-name="Ellipse 1" cx="3.882" cy="3.882" r="3.882" transform="translate(101.466 0)" fill="#fcbf29"/>
      <path id="Path_37" data-name="Path 37" d="M140.7,38.645h0A3.879,3.879,0,0,1,137.23,36.5l-4.595-9.2-9.2-4.595a3.883,3.883,0,0,1,0-6.945l9.2-4.595,4.595-9.2a4.042,4.042,0,0,1,6.945,0l4.6,9.2,9.193,4.595a3.883,3.883,0,0,1,0,6.945L148.773,27.3l-4.6,9.2A3.883,3.883,0,0,1,140.7,38.645Z" transform="translate(-60.364 7.629)" fill="#fedb41"/>
      <path id="Path_38" data-name="Path 38" d="M441.173,98.361h-3.882V94.479a3.882,3.882,0,1,0-7.764,0v3.882h-3.882a3.882,3.882,0,1,0,0,7.764h3.882v3.882a3.882,3.882,0,1,0,7.764,0v-3.882h3.882a3.882,3.882,0,1,0,0-7.764Z" transform="translate(-286.874 -63.398)" fill="#fcbf29"/>
      <path id="Path_39" data-name="Path 39" d="M247.357,177.612H210.143a26.709,26.709,0,0,1-19.176-8l-8.7-8.7a3.64,3.64,0,0,1-1.165-2.717V111.1a3.844,3.844,0,0,1,3.882-3.882h7.764L205.02,94.877A36.923,36.923,0,0,0,216.044,68.4a7.764,7.764,0,1,1,15.528,0v5.9a81.23,81.23,0,0,1-4.969,27.716l-1.941,5.2h21.065l.621,26.5Z" transform="translate(-104.677 -45.112)" fill="#fec478"/>
      <path id="Path_40" data-name="Path 40" d="M247.357,386.531H210.143a26.709,26.709,0,0,1-19.176-8l-8.7-8.7a3.64,3.64,0,0,1-1.165-2.717V342.64h65.241Z" transform="translate(-104.677 -254.031)" fill="#feb756"/>
      <path id="Path_41" data-name="Path 41" d="M391.234,275.581a8.9,8.9,0,0,1,8.7,8.954,8.7,8.7,0,0,1-8.7,8.773H383.47a8.734,8.734,0,0,1,0,17.468H369.547a8.734,8.734,0,0,1,0-17.468,8.7,8.7,0,0,1-8.7-8.773,8.9,8.9,0,0,1,8.7-8.954,8.681,8.681,0,0,1-8.7-8.7,8.923,8.923,0,0,1,8.7-9.032,8.734,8.734,0,0,1,0-17.468h21.687a8.734,8.734,0,0,1,0,17.468,8.923,8.923,0,0,1,8.7,9.032A8.681,8.681,0,0,1,391.234,275.581Z" transform="translate(-237.84 -178.276)" fill="#fedbab"/>
      <path id="Path_42" data-name="Path 42" d="M399.929,360.29a8.7,8.7,0,0,1-8.7,8.773H383.47a8.734,8.734,0,0,1,0,17.468H369.547a8.734,8.734,0,0,1,0-17.468,8.7,8.7,0,0,1-8.7-8.773,8.9,8.9,0,0,1,8.7-8.954,8.681,8.681,0,0,1-8.7-8.7h39.077a8.681,8.681,0,0,1-8.7,8.7A8.9,8.9,0,0,1,399.929,360.29Z" transform="translate(-237.84 -254.031)" fill="#fec478"/>
      <path id="Path_43" data-name="Path 43" d="M140.6,210.428H125.073a3.844,3.844,0,0,0-3.882,3.882v62.627a3.844,3.844,0,0,0,3.882,3.882H140.6a3.844,3.844,0,0,0,3.882-3.882V214.31A3.844,3.844,0,0,0,140.6,210.428Z" transform="translate(-60.289 -156.082)" fill="#4f3f82"/>
      <path id="Path_44" data-name="Path 44" d="M121.191,342.64h23.291v32.245a3.844,3.844,0,0,1-3.882,3.882H125.073a3.844,3.844,0,0,1-3.882-3.882Z" transform="translate(-60.289 -254.031)" fill="#3b2c68"/>
      <path id="Path_45" data-name="Path 45" d="M34.859,180.47h-60.9a3.844,3.844,0,0,0-3.882,3.882v78.154a3.844,3.844,0,0,0,3.882,3.882h60.9a3.844,3.844,0,0,0,3.882-3.882V184.352A3.844,3.844,0,0,0,34.859,180.47Z" transform="translate(29.925 -133.888)" fill="#17ceb4"/>
      <path id="Path_46" data-name="Path 46" d="M-29.856,342.64h68.6v40.009a3.844,3.844,0,0,1-3.882,3.882H-25.974a3.844,3.844,0,0,1-3.882-3.882Z" transform="translate(29.924 -254.031)" fill="#11ad94"/>
      <circle id="Ellipse_2" data-name="Ellipse 2" cx="3.882" cy="3.882" r="3.882" transform="translate(45.374 109.211)" fill="#cae8f9"/>
    </g>
  </g>
</svg>
