<svg id="donation" xmlns="http://www.w3.org/2000/svg" width="163.298" height="163.298" viewBox="0 0 163.298 163.298">
  <path id="Path_11" data-name="Path 11" d="M163.3,81.649a81.664,81.664,0,0,1-3.065,22.23c-.72,2.55-3.94,2.669-4.894,5.11-.639,1.636,1.05,5.626.311,7.208q-1.636,3.5-3.591,6.819c-1.171,1.987-6.361.1-7.691,1.975-.226.322-.459.641-.7.96a80.606,80.606,0,0,1-6.49,7.82c-.3.322,3.328,4.468,3.019,4.787l0,0a81.647,81.647,0,0,1-117.09,0l0,0c-.386-.392.325-6.141-.045-6.543q-1.22-1.3-2.376-2.654-2.048-2.392-3.91-4.94c-.233-.319-.462-.638-.692-.96-1.33-1.879-3.671,1.539-4.842-.451Q9.292,119.7,7.651,116.2v0c-.741-1.582,1.817-5.612,1.177-7.247-.956-2.442-5.045-2.522-5.764-5.074a81.857,81.857,0,0,1,8.174-63.587A81.665,81.665,0,0,1,147.5,33.374,81.445,81.445,0,0,1,163.3,81.649Z" transform="translate(0 0)" fill="#634086"/>
  <g id="Group_23" data-name="Group 23" transform="translate(3.065 87.578)">
    <g id="Group_21" data-name="Group 21">
      <path id="Path_12" data-name="Path 12" d="M29.069,284.318v10.633A9.729,9.729,0,0,1,14.2,303.212v0A80.491,80.491,0,0,1,9.61,290.888v-6.57a9.729,9.729,0,0,1,19.459,0Z" transform="translate(-9.61 -274.59)" fill="#ffddce"/>
      <path id="Path_13" data-name="Path 13" d="M21.873,304.347a9.766,9.766,0,0,1-7.677-1.139A80.493,80.493,0,0,1,9.61,290.888v-6.573a9.743,9.743,0,0,1,12.263-9.393,9.727,9.727,0,0,0-7.2,9.393v10.637a9.728,9.728,0,0,0,7.2,9.4Z" transform="translate(-9.61 -274.59)" fill="#ffcbbe"/>
    </g>
    <g id="Group_22" data-name="Group 22" transform="translate(137.709)">
      <path id="Path_14" data-name="Path 14" d="M460.839,284.318v6.573a81.116,81.116,0,0,1-4.583,12.317,9.728,9.728,0,0,1-14.875-8.257V284.318a9.729,9.729,0,0,1,19.459,0Z" transform="translate(-441.38 -274.59)" fill="#ffddce"/>
    </g>
  </g>
  <path id="Path_15" data-name="Path 15" d="M176.059,104.64v89.641q-1.756,2.98-3.754,5.8c-.226.322-.459.641-.7.96H39.686q-2.387-3.263-4.446-6.765V104.64Z" transform="translate(-24.001 -71.266)" fill="#ffd064"/>
  <path id="Path_16" data-name="Path 16" d="M220.049,214.363H190.967a9.1,9.1,0,1,1,0-18.209h29.082a9.1,9.1,0,1,1,0,18.209Z" transform="translate(-123.859 -133.592)" fill="#2b4d66"/>
  <path id="Path_17" data-name="Path 17" d="M43.571,128.45v88.806H39.686q-2.387-3.263-4.446-6.765V128.45Z" transform="translate(-24.001 -87.482)" fill="#ebb044"/>
  <path id="Path_18" data-name="Path 18" d="M35.243,104.639H176.06v24.277H35.243Z" transform="translate(-24.003 -71.265)" fill="#ebb044"/>
  <path id="Path_19" data-name="Path 19" d="M23.056,62.732H171.647V92.9H23.056Z" transform="translate(-15.703 -42.724)" fill="#ffd064"/>
  <path id="Path_20" data-name="Path 20" d="M23.056,62.732H30.7V92.9h-7.64Z" transform="translate(-15.703 -42.724)" fill="#ebb044"/>
  <g id="Group_34" data-name="Group 34" transform="translate(14.993 111.369)">
    <g id="Group_28" data-name="Group 28" transform="translate(75.222)">
      <g id="Group_24" data-name="Group 24" transform="translate(0 9.568)">
        <path id="Path_21" data-name="Path 21" d="M290.122,379.185a7.261,7.261,0,0,0-7.261,7.261V389.6a7.261,7.261,0,1,0,14.521,0v-3.152a7.26,7.26,0,0,0-7.26-7.261Z" transform="translate(-282.861 -379.185)" fill="#ffddce"/>
        <path id="Path_22" data-name="Path 22" d="M292.012,396.608a7.265,7.265,0,0,1-9.15-7.01v-3.154a7.265,7.265,0,0,1,9.15-7.01,7.259,7.259,0,0,0-5.374,7.01V389.6A7.259,7.259,0,0,0,292.012,396.608Z" transform="translate(-282.862 -379.184)" fill="#ffcbbe"/>
      </g>
      <g id="Group_25" data-name="Group 25" transform="translate(14.522 4.784)">
        <path id="Path_23" data-name="Path 23" d="M335.653,364.185a7.261,7.261,0,0,0-7.261,7.261v7.936a7.261,7.261,0,1,0,14.521,0v-7.936A7.26,7.26,0,0,0,335.653,364.185Z" transform="translate(-328.392 -364.185)" fill="#ffddce"/>
        <path id="Path_24" data-name="Path 24" d="M337.543,386.392a7.265,7.265,0,0,1-9.15-7.01v-7.938a7.265,7.265,0,0,1,9.15-7.01,7.259,7.259,0,0,0-5.374,7.01v7.938A7.259,7.259,0,0,0,337.543,386.392Z" transform="translate(-328.393 -364.184)" fill="#ffcbbe"/>
      </g>
      <g id="Group_26" data-name="Group 26" transform="translate(29.043)">
        <path id="Path_25" data-name="Path 25" d="M381.184,349.185a7.261,7.261,0,0,0-7.261,7.261v12.72a7.261,7.261,0,1,0,14.521,0v-12.72A7.26,7.26,0,0,0,381.184,349.185Z" transform="translate(-373.923 -349.185)" fill="#ffddce"/>
        <path id="Path_26" data-name="Path 26" d="M383.074,376.176a7.265,7.265,0,0,1-9.15-7.01V356.443a7.265,7.265,0,0,1,9.15-7.01,7.259,7.259,0,0,0-5.374,7.01v12.723A7.259,7.259,0,0,0,383.074,376.176Z" transform="translate(-373.924 -349.184)" fill="#ffcbbe"/>
      </g>
      <g id="Group_27" data-name="Group 27" transform="translate(43.564 4.783)">
        <path id="Path_27" data-name="Path 27" d="M433.975,371.449v5.4a82.128,82.128,0,0,1-8.107,9.747,7.262,7.262,0,0,1-6.417-7.211v-7.935a7.262,7.262,0,0,1,14.525,0Z" transform="translate(-419.45 -364.187)" fill="#ffddce"/>
        <path id="Path_28" data-name="Path 28" d="M426.789,385.622c-.3.322-.609.644-.919.963a7.254,7.254,0,0,1-6.42-7.208v-7.938a7.265,7.265,0,0,1,9.15-7.01,7.259,7.259,0,0,0-5.374,7.01v7.938A7.244,7.244,0,0,0,426.789,385.622Z" transform="translate(-419.45 -364.18)" fill="#ffcbbe"/>
      </g>
    </g>
    <g id="Group_33" data-name="Group 33">
      <g id="Group_29" data-name="Group 29" transform="translate(43.566 9.568)">
        <path id="Path_29" data-name="Path 29" d="M190.868,379.185a7.261,7.261,0,0,0-7.261,7.261V389.6a7.261,7.261,0,1,0,14.521,0v-3.152a7.26,7.26,0,0,0-7.26-7.261Z" transform="translate(-183.607 -379.185)" fill="#ffddce"/>
        <path id="Path_30" data-name="Path 30" d="M192.757,396.608a7.265,7.265,0,0,1-9.15-7.01v-3.154a7.265,7.265,0,0,1,9.15-7.01,7.259,7.259,0,0,0-5.374,7.01V389.6A7.259,7.259,0,0,0,192.757,396.608Z" transform="translate(-183.607 -379.184)" fill="#ffcbbe"/>
      </g>
      <g id="Group_30" data-name="Group 30" transform="translate(29.045 4.784)">
        <path id="Path_31" data-name="Path 31" d="M145.337,364.185a7.261,7.261,0,0,0-7.261,7.261v7.936a7.261,7.261,0,0,0,14.521,0v-7.936a7.26,7.26,0,0,0-7.26-7.261Z" transform="translate(-138.076 -364.185)" fill="#ffddce"/>
        <path id="Path_32" data-name="Path 32" d="M147.226,386.392a7.265,7.265,0,0,1-9.15-7.01v-7.938a7.265,7.265,0,0,1,9.15-7.01,7.259,7.259,0,0,0-5.374,7.01v7.938A7.259,7.259,0,0,0,147.226,386.392Z" transform="translate(-138.076 -364.184)" fill="#ffcbbe"/>
      </g>
      <g id="Group_31" data-name="Group 31" transform="translate(14.523)">
        <path id="Path_33" data-name="Path 33" d="M99.806,349.185a7.261,7.261,0,0,0-7.261,7.261v12.72a7.261,7.261,0,1,0,14.521,0v-12.72A7.26,7.26,0,0,0,99.806,349.185Z" transform="translate(-92.545 -349.185)" fill="#ffddce"/>
        <path id="Path_34" data-name="Path 34" d="M101.7,376.176a7.265,7.265,0,0,1-9.15-7.01V356.443a7.265,7.265,0,0,1,9.15-7.01,7.259,7.259,0,0,0-5.374,7.01v12.723A7.259,7.259,0,0,0,101.7,376.176Z" transform="translate(-92.546 -349.184)" fill="#ffcbbe"/>
      </g>
      <g id="Group_32" data-name="Group 32" transform="translate(0 4.783)">
        <path id="Path_35" data-name="Path 35" d="M61.535,371.449v7.935a7.261,7.261,0,0,1-6.411,7.211l0,0q-.579-.588-1.132-1.19-1.22-1.3-2.376-2.654-2.048-2.392-3.91-4.94c-.233-.319-.462-.638-.692-.96v-5.4a7.262,7.262,0,0,1,14.525,0Z" transform="translate(-47.01 -364.187)" fill="#ffddce"/>
        <path id="Path_36" data-name="Path 36" d="M50.786,371.439v7.938a7.233,7.233,0,0,0,.826,3.365q-2.048-2.392-3.91-4.94c-.233-.319-.462-.638-.692-.96v-5.4a7.265,7.265,0,0,1,9.15-7.01A7.259,7.259,0,0,0,50.786,371.439Z" transform="translate(-47.01 -364.18)" fill="#ffcbbe"/>
      </g>
    </g>
  </g>
</svg>
