<svg id="Group_492" data-name="Group 492" xmlns="http://www.w3.org/2000/svg" width="25.236" height="25.236" viewBox="0 0 25.236 25.236">
  <path id="Path_419" data-name="Path 419" d="M160.1,139.029a5.1,5.1,0,0,0-2.921-2.921,8.516,8.516,0,0,0-2.858-.53c-1.623-.074-2.11-.09-6.219-.09s-4.6.016-6.219.09a8.522,8.522,0,0,0-2.858.53,5.1,5.1,0,0,0-2.921,2.921,8.52,8.52,0,0,0-.53,2.858c-.074,1.623-.09,2.109-.09,6.219s.016,4.6.09,6.219a8.516,8.516,0,0,0,.53,2.858,5.1,5.1,0,0,0,2.921,2.921,8.505,8.505,0,0,0,2.858.53c1.623.074,2.109.09,6.219.09s4.6-.016,6.219-.09a8.505,8.505,0,0,0,2.858-.53,5.1,5.1,0,0,0,2.921-2.921,8.524,8.524,0,0,0,.53-2.858c.074-1.623.09-2.11.09-6.219s-.016-4.6-.09-6.219A8.505,8.505,0,0,0,160.1,139.029Zm-12,16.98a7.9,7.9,0,1,1,7.9-7.9A7.9,7.9,0,0,1,148.1,156.009Zm8.216-14.272a1.847,1.847,0,1,1,1.847-1.847A1.847,1.847,0,0,1,156.318,141.737Z" transform="translate(-135.484 -135.488)" fill="#fff"/>
  <path id="Path_420" data-name="Path 420" d="M217.261,212.13a5.13,5.13,0,1,1-5.13-5.13A5.13,5.13,0,0,1,217.261,212.13Z" transform="translate(-199.512 -199.513)" fill="#fff"/>
</svg>
