<svg xmlns="http://www.w3.org/2000/svg" width="40.737" height="37.229" viewBox="0 0 40.737 37.229">
  <path id="heart" d="M26.736,22.543a10.882,10.882,0,0,0-5,1.2,11.088,11.088,0,0,0-2.869,2.114A11.088,11.088,0,0,0,16,23.742a10.883,10.883,0,0,0-5-1.2,11.014,11.014,0,0,0-11,11c0,4.3,2.269,8.86,6.744,13.563a65.215,65.215,0,0,0,11.491,9.255l.633.409.633-.409a65.21,65.21,0,0,0,11.491-9.255c4.475-4.7,6.744-9.267,6.744-13.563A11.014,11.014,0,0,0,26.736,22.543Z" transform="translate(1.5 -21.043)" fill="none" stroke="#fff" stroke-linejoin="round" stroke-width="3"/>
</svg>
