<svg xmlns="http://www.w3.org/2000/svg" width="60.598" height="60.598" viewBox="0 0 60.598 60.598">
  <path id="Path_6954" data-name="Path 6954" d="M38.164,15.978H10.48a.888.888,0,0,0,0,1.775H38.164a.888.888,0,0,0,0-1.775ZM37.572,5.326H31.7a.888.888,0,0,0,0,1.775h5.577v3.551H11.368V7.1H27.557a.888.888,0,0,0,0-1.775H11.072A1.481,1.481,0,0,0,9.593,6.805v4.142a1.481,1.481,0,0,0,1.479,1.479h26.5a1.481,1.481,0,0,0,1.479-1.479V6.805A1.481,1.481,0,0,0,37.572,5.326Zm.592,14.2H10.48a.888.888,0,0,0,0,1.775H38.164a.888.888,0,0,0,0-1.775Zm0,7.1h-9.93a.888.888,0,1,0,0,1.775h9.93a.888.888,0,1,0,0-1.775Zm0-3.551h-9.93a.888.888,0,1,0,0,1.775h9.93a.888.888,0,1,0,0-1.775Zm10.48,13.556V34.619a4.445,4.445,0,0,0-3.561-4.351V4.438A4.443,4.443,0,0,0,40.644,0H8A4.443,4.443,0,0,0,3.561,4.438V23.167A4.445,4.445,0,0,0,0,27.518v12.6a.888.888,0,1,0,1.775,0v-12.6a2.666,2.666,0,0,1,2.663-2.663h17.32a2.188,2.188,0,0,1,2.125,1.658l.61,2.44a3.958,3.958,0,0,0,3.846,3H44.206a2.666,2.666,0,0,1,2.663,2.663v2.144a11.979,11.979,0,0,0-4.522,22.06H4.438A2.666,2.666,0,0,1,1.775,56.16v-11.9a.888.888,0,0,0-1.775,0v11.9A4.443,4.443,0,0,0,4.438,60.6H44.206a4.382,4.382,0,0,0,1.654-.321,11.982,11.982,0,1,0,2.784-23.642Zm-5.337-6.455H28.339a2.185,2.185,0,0,1-2.124-1.658l-.61-2.441a3.961,3.961,0,0,0-3.847-3H5.337V4.438A2.666,2.666,0,0,1,8,1.775H40.644a2.666,2.666,0,0,1,2.663,2.663Zm5.309,28.642A10.206,10.206,0,1,1,58.823,48.617,10.218,10.218,0,0,1,48.616,58.823Zm4.264-8.759H51.567v-7.05a1.559,1.559,0,0,0-1.557-1.557H47.223a1.559,1.559,0,0,0-1.557,1.557v7.05H44.352a1.461,1.461,0,0,0-1.033,2.495l4.2,4.2a1.559,1.559,0,0,0,2.2,0l4.2-4.2a1.461,1.461,0,0,0-1.034-2.495Zm-4.264,5.282L45.11,51.839h.774a1.559,1.559,0,0,0,1.557-1.557v-7.05h2.351v7.05a1.559,1.559,0,0,0,1.557,1.557h.774ZM34.034,42.368a.888.888,0,1,0,0-1.775H30.842a.888.888,0,0,0-.888.888v7.876a.888.888,0,1,0,1.775,0V46.231H33.78a.888.888,0,0,0,0-1.775H31.729V42.368ZM22.406,50.244h0c.066,0,1.62-.006,2.241-.017,2.27-.04,3.917-2.025,3.917-4.72,0-2.833-1.606-4.737-4-4.737H22.391a.888.888,0,0,0-.888.889v7.572a.986.986,0,0,0,.9,1.013Zm2.165-7.7c1.638,0,2.221,1.53,2.221,2.962,0,2.008-1.091,2.926-2.173,2.945-.3.005-.853.01-1.329.012,0-.911-.009-4.972-.011-5.919h1.291ZM15.5,49.356V46.793c.47,0,1.016,0,1.322,0a3.127,3.127,0,1,0,0-6.253H14.61a.9.9,0,0,0-.888.888v7.934a.888.888,0,0,0,1.775,0Zm1.321-7.046a1.352,1.352,0,1,1,0,2.7c-.3,0-.842,0-1.311,0,0-.483-.006-2.2-.008-2.707Z" transform="translate(0)" fill="#00a651"/>
</svg>
