<svg id="supermarket-white" xmlns="http://www.w3.org/2000/svg" width="17.374" height="15.27" viewBox="0 0 17.374 15.27">
  <path id="Path_3" data-name="Path 3" d="M5.633,10.18h9.2a.507.507,0,0,0,.489-.369l2.036-7.126a.508.508,0,0,0-.489-.649H4.458L4.094.4A.509.509,0,0,0,3.6,0H.509a.509.509,0,0,0,0,1.018H3.188L5.026,9.289a1.526,1.526,0,0,0,.606,2.927h9.2a.509.509,0,0,0,0-1.018h-9.2a.509.509,0,1,1,0-1.018Zm0,0" fill="#fff"/>
  <path id="Path_4" data-name="Path 4" d="M151,361.531A1.527,1.527,0,1,0,152.527,360,1.529,1.529,0,0,0,151,361.531Zm0,0" transform="translate(-145.876 -347.788)" fill="#fff"/>
  <path id="Path_5" data-name="Path 5" d="M362,361.531A1.527,1.527,0,1,0,363.531,360,1.529,1.529,0,0,0,362,361.531Zm0,0" transform="translate(-349.72 -347.788)" fill="#fff"/>
</svg>
