<svg xmlns="http://www.w3.org/2000/svg" width="36.919" height="32.448" viewBox="0 0 36.919 32.448">
  <g id="supermarket" opacity="0.732">
    <path id="Path_3" data-name="Path 3" d="M11.97,21.632H31.511a1.078,1.078,0,0,0,1.039-.785L36.877,5.7a1.08,1.08,0,0,0-1.04-1.378H9.473L8.7.847A1.082,1.082,0,0,0,7.643,0H1.082a1.082,1.082,0,0,0,0,2.163H6.775l3.906,17.576a3.243,3.243,0,0,0,1.289,6.22H31.511a1.082,1.082,0,0,0,0-2.163H11.97a1.082,1.082,0,1,1,0-2.163Zm0,0" fill="#fff"/>
    <path id="Path_4" data-name="Path 4" d="M151,363.249A3.245,3.245,0,1,0,154.245,360,3.248,3.248,0,0,0,151,363.249Zm0,0" transform="translate(-140.112 -334.045)" fill="#fff"/>
    <path id="Path_5" data-name="Path 5" d="M362,363.249A3.245,3.245,0,1,0,365.249,360,3.248,3.248,0,0,0,362,363.249Zm0,0" transform="translate(-335.901 -334.045)" fill="#fff"/>
  </g>
</svg>
