<svg id="Group_2128" data-name="Group 2128" xmlns="http://www.w3.org/2000/svg" width="39.309" height="39.31" viewBox="0 0 39.309 39.31">
  <path id="Path_12593" data-name="Path 12593" d="M29.891,68.368a2.754,2.754,0,0,0-4.164,0c-.973.965-1.947,1.93-2.9,2.912a.574.574,0,0,1-.8.147c-.63-.344-1.3-.622-1.906-1a30.2,30.2,0,0,1-7.28-6.626,17.248,17.248,0,0,1-2.609-4.18.6.6,0,0,1,.147-.769c.973-.941,1.922-1.906,2.879-2.871a2.765,2.765,0,0,0-.008-4.262c-.761-.769-1.521-1.521-2.282-2.29-.785-.785-1.562-1.579-2.356-2.356a2.772,2.772,0,0,0-4.164.008c-.982.965-1.922,1.955-2.92,2.9a4.74,4.74,0,0,0-1.489,3.2,13.551,13.551,0,0,0,1.047,5.832A35.441,35.441,0,0,0,7.372,69.5,38.927,38.927,0,0,0,20.263,79.583,18.645,18.645,0,0,0,27.4,81.66a5.233,5.233,0,0,0,4.491-1.71c.834-.933,1.775-1.783,2.659-2.675a2.783,2.783,0,0,0,.016-4.237Q32.239,70.695,29.891,68.368Z" transform="translate(-0.006 -42.363)" fill="#f5f5f5"/>
  <path id="Path_12594" data-name="Path 12594" d="M246.721,107.632l3.018-.515A13.549,13.549,0,0,0,238.279,96l-.425,3.035a10.471,10.471,0,0,1,8.867,8.6Z" transform="translate(-218.398 -88.147)" fill="#f5f5f5"/>
  <path id="Path_12595" data-name="Path 12595" d="M255.94,6.364A22.257,22.257,0,0,0,243.179,0l-.425,3.035a19.421,19.421,0,0,1,16.434,15.927l3.018-.515A22.42,22.42,0,0,0,255.94,6.364Z" transform="translate(-222.897)" fill="#f5f5f5"/>
</svg>
