<svg id="delete" xmlns="http://www.w3.org/2000/svg" width="21.121" height="25.995" viewBox="0 0 21.121 25.995">
  <path id="Path_475" data-name="Path 475" d="M67.09,3.249H62.622V2.437A2.437,2.437,0,0,0,60.185,0H56.936A2.437,2.437,0,0,0,54.5,2.437v.812H50.031A2.031,2.031,0,0,0,48,5.28V6.905a.812.812,0,0,0,.812.812h19.5a.812.812,0,0,0,.812-.812V5.28A2.031,2.031,0,0,0,67.09,3.249ZM56.124,2.437a.813.813,0,0,1,.812-.812h3.249A.813.813,0,0,1,61,2.437v.812H56.124Z" transform="translate(-48)" fill="#fff"/>
  <path id="Path_476" data-name="Path 476" d="M73.618,184a.254.254,0,0,0-.254.266l.67,14.066a2.434,2.434,0,0,0,2.434,2.321H88.805a2.434,2.434,0,0,0,2.434-2.321l.67-14.066a.254.254,0,0,0-.254-.266Zm12.268,2.031a.812.812,0,0,1,1.625,0v10.561a.812.812,0,1,1-1.625,0Zm-4.062,0a.812.812,0,0,1,1.625,0v10.561a.812.812,0,1,1-1.625,0Zm-4.062,0a.812.812,0,0,1,1.625,0v10.561a.812.812,0,1,1-1.625,0Z" transform="translate(-72.076 -174.658)" fill="#fff"/>
</svg>
