<svg xmlns="http://www.w3.org/2000/svg" width="33.169" height="30.086" viewBox="0 0 33.169 30.086">
  <g id="heart" transform="translate(0 -22.543)">
    <path id="Path_7058" data-name="Path 7058" d="M23.5,22.543A9.565,9.565,0,0,0,19.106,23.6a9.745,9.745,0,0,0-2.522,1.859A9.746,9.746,0,0,0,14.063,23.6,9.565,9.565,0,0,0,9.67,22.543,9.681,9.681,0,0,0,0,32.213C0,35.989,1.994,40,5.928,44.134a57.321,57.321,0,0,0,10.1,8.135l.557.36.557-.36a57.32,57.32,0,0,0,10.1-8.135c3.933-4.134,5.928-8.145,5.928-11.921A9.681,9.681,0,0,0,23.5,22.543ZM25.755,42.72a54.254,54.254,0,0,1-9.17,7.462,54.254,54.254,0,0,1-9.17-7.462c-3.558-3.74-5.363-7.275-5.363-10.507a7.618,7.618,0,0,1,13.713-4.57l.82,1.092.82-1.092a7.618,7.618,0,0,1,13.713,4.57C31.118,35.445,29.313,38.98,25.755,42.72Z" fill="#505050"/>
  </g>
</svg>
