<svg xmlns="http://www.w3.org/2000/svg" width="30.498" height="31.546" viewBox="0 0 30.498 31.546">
  <g id="Group_2091" data-name="Group 2091" transform="translate(-8.5)">
    <path id="Path_7051" data-name="Path 7051" d="M38.074,15.526H34.993v-1.38a3.637,3.637,0,0,0-2.773-3.514V.924A.924.924,0,0,0,31.3,0H9.424A.924.924,0,0,0,8.5.924V26.247a.924.924,0,0,0,.924.924H23.657v.757a3.624,3.624,0,0,0,3.623,3.617h8.1A3.624,3.624,0,0,0,39,27.928V16.451a.924.924,0,0,0-.924-.924Zm-4.929-1.38v1.38H29.51v-1.38a1.818,1.818,0,0,1,3.635,0Zm-22.8,11.176V1.848H30.372v8.8a3.636,3.636,0,0,0-2.711,3.5v1.38H24.581a.924.924,0,0,0-.924.924v8.872Zm26.8,2.606A1.774,1.774,0,0,1,35.375,29.7h-8.1a1.774,1.774,0,0,1-1.774-1.769V17.375h2.156v2.434a.924.924,0,1,0,1.848,0V17.375h3.635v2.434a.924.924,0,0,0,1.848,0V17.375H37.15Z" fill="#505050"/>
    <path id="Path_7052" data-name="Path 7052" d="M71.264,60.295l-1.05,1.128-.07-.087A.924.924,0,0,0,68.7,62.494l.739.92a.924.924,0,0,0,.687.345h.034a.924.924,0,0,0,.676-.294l1.778-1.91a.924.924,0,0,0-1.353-1.26Z" transform="translate(-56.302 -56.304)" fill="#505050"/>
    <path id="Path_7053" data-name="Path 7053" d="M170.424,77.348h8.256a.924.924,0,1,0,0-1.848h-8.256a.924.924,0,0,0,0,1.848Z" transform="translate(-151.081 -70.848)" fill="#505050"/>
    <path id="Path_7054" data-name="Path 7054" d="M71.264,151.295l-1.05,1.128-.07-.087a.924.924,0,0,0-1.441,1.158l.739.92a.924.924,0,0,0,.687.345h.034a.925.925,0,0,0,.676-.294l1.778-1.91a.924.924,0,0,0-1.353-1.26Z" transform="translate(-56.302 -141.697)" fill="#505050"/>
    <path id="Path_7055" data-name="Path 7055" d="M170.424,168.348H175.6a.924.924,0,0,0,0-1.848h-5.175a.924.924,0,0,0,0,1.848Z" transform="translate(-151.08 -156.241)" fill="#505050"/>
    <path id="Path_7056" data-name="Path 7056" d="M71.264,242.295l-1.05,1.128-.07-.087a.924.924,0,0,0-1.441,1.158l.739.92a.924.924,0,0,0,.687.345h.034a.924.924,0,0,0,.676-.294l1.778-1.91a.924.924,0,0,0-1.353-1.26Z" transform="translate(-56.302 -227.09)" fill="#505050"/>
    <path id="Path_7057" data-name="Path 7057" d="M171.964,257.5h-1.54a.924.924,0,1,0,0,1.848h1.54a.924.924,0,1,0,0-1.848Z" transform="translate(-151.081 -241.635)" fill="#505050"/>
  </g>
</svg>
