<svg xmlns="http://www.w3.org/2000/svg" width="31.626" height="33.65" viewBox="0 0 31.626 33.65">
  <g id="paper-clip" transform="translate(-14.394 1.002)">
    <g id="Group_1799" data-name="Group 1799" transform="translate(14.394 -1.002)">
      <path id="Path_7023" data-name="Path 7023" d="M45.607,11.253a1.4,1.4,0,0,0-1.983.005L26.769,28.2a5.608,5.608,0,0,1-7.929-7.934L36.194,2.826a3.505,3.505,0,0,1,4.954,4.96L26.772,22.162l0,0a1.4,1.4,0,0,1-1.979-1.985l6.939-6.941a1.4,1.4,0,1,0-1.983-1.983L22.807,18.2a4.206,4.206,0,0,0,5.948,5.948l.005-.006,14.37-14.37A6.309,6.309,0,0,0,34.209.845L16.855,18.29a8.413,8.413,0,0,0,11.9,11.895L45.612,13.236A1.4,1.4,0,0,0,45.607,11.253Z" transform="translate(-14.394 1.002)" fill="#505050"/>
    </g>
  </g>
</svg>
