<svg xmlns="http://www.w3.org/2000/svg" width="46.61" height="27.189" viewBox="0 0 46.61 27.189">
  <g id="Group_2090" data-name="Group 2090" transform="translate(0 0)">
    <path id="Path_7049" data-name="Path 7049" d="M44.668,120.261v-.971a6.768,6.768,0,0,0-1.942-4.742v-4a3.888,3.888,0,0,0-3.884-3.884H3.884A3.888,3.888,0,0,0,0,110.55v9.71a3.888,3.888,0,0,0,3.884,3.884H29.131v7.768a1.945,1.945,0,0,0,1.942,1.942H44.668a1.945,1.945,0,0,0,1.942-1.942V122.2A1.944,1.944,0,0,0,44.668,120.261Zm-1.942-.971v.971h-9.71v-.971a4.855,4.855,0,1,1,9.71,0ZM29.131,122.2H3.884a1.945,1.945,0,0,1-1.942-1.942v-9.71a1.945,1.945,0,0,1,1.942-1.942H38.842a1.945,1.945,0,0,1,1.942,1.942v2.624a6.719,6.719,0,0,0-2.913-.682,6.8,6.8,0,0,0-5.645,3.018l-.181-.1.225-.13a.971.971,0,1,0-.971-1.682l-.226.13v-.26a.971.971,0,0,0-1.942,0v.26l-.226-.13a.971.971,0,1,0-.971,1.682l.225.13-.225.13a.971.971,0,0,0,.971,1.682l.226-.13v.26a.971.971,0,0,0,1.942,0v-.26l.226.13c.038.022.082.016.122.033a6.7,6.7,0,0,0-.347,2.039v.971A1.945,1.945,0,0,0,29.131,122.2Zm15.537,9.71H31.073V122.2H44.668v9.71Z" transform="translate(0 -106.666)" fill="#505050"/>
    <g id="Group_2089" data-name="Group 2089">
      <path id="Path_7046" data-name="Path 7046" d="M50.692,172.124a.972.972,0,0,0-1.327-.356l-.226.13v-.26a.971.971,0,0,0-1.942,0v.26l-.226-.13A.971.971,0,0,0,46,173.45l.225.13-.225.13a.971.971,0,0,0,.971,1.682l.226-.13v.26a.971.971,0,0,0,1.942,0v-.26l.226.13a.971.971,0,0,0,.971-1.682l-.225-.13.225-.13A.971.971,0,0,0,50.692,172.124Z" transform="translate(-41.372 -164.841)" fill="#505050"/>
      <path id="Path_7047" data-name="Path 7047" d="M136.026,172.124a.972.972,0,0,0-1.327-.356l-.226.13v-.26a.971.971,0,0,0-1.942,0v.26l-.226-.13a.971.971,0,0,0-.971,1.682l.225.13-.225.13a.971.971,0,0,0,.971,1.682l.226-.13v.26a.971.971,0,1,0,1.942,0v-.26l.226.13a.971.971,0,0,0,.971-1.682l-.225-.13.225-.13A.971.971,0,0,0,136.026,172.124Z" transform="translate(-118.937 -164.841)" fill="#505050"/>
      <path id="Path_7048" data-name="Path 7048" d="M221.359,172.123a.972.972,0,0,0-1.327-.356l-.226.13v-.26a.971.971,0,0,0-1.942,0v.26l-.226-.13a.971.971,0,1,0-.971,1.682l.225.13-.225.13a.971.971,0,0,0,.971,1.682l.226-.13v.26a.971.971,0,0,0,1.942,0v-.26l.226.13a.971.971,0,0,0,.971-1.682l-.225-.13.225-.13A.971.971,0,0,0,221.359,172.123Z" transform="translate(-196.502 -164.84)" fill="#505050"/>
      <path id="Path_7050" data-name="Path 7050" d="M395.639,302.253v1.27a.971.971,0,0,0,1.942,0v-1.27a1.916,1.916,0,0,0,.971-1.643,1.942,1.942,0,1,0-3.884,0A1.916,1.916,0,0,0,395.639,302.253Z" transform="translate(-358.739 -281.188)" fill="#505050"/>
    </g>
  </g>
</svg>
