<svg xmlns="http://www.w3.org/2000/svg" width="206.491" height="189.281" viewBox="0 0 206.491 189.281">
  <g id="wallet" transform="translate(0 -1)">
    <path id="Path_6921" data-name="Path 6921" d="M90.616,35.491,72.35,4.2A6.447,6.447,0,0,0,63.463,1.91L7.624,35.413Z" transform="translate(57.971 0)" fill="#747373"/>
    <path id="Path_6922" data-name="Path 6922" d="M25.811,36.415a8.6,8.6,0,1,1,0-17.208H54.806L83.543,2H25.811A25.79,25.79,0,0,0,.43,23.509,8.673,8.673,0,0,0,0,25.66V156.868a25.887,25.887,0,0,0,25.811,25.811H172.076a17.258,17.258,0,0,0,17.208-17.208V148.264H167.774a38.717,38.717,0,1,1,0-77.434h21.509V53.623a17.258,17.258,0,0,0-17.208-17.208ZM163.472,19.208A17.179,17.179,0,0,0,148.587,2.172l14.885,25.639Z" transform="translate(0 7.602)" fill="#747373"/>
    <path id="Path_6923" data-name="Path 6923" d="M74.576,11.5H42.311a25.811,25.811,0,1,0,0,51.623H74.576a6.455,6.455,0,0,0,6.453-6.453V17.953A6.455,6.455,0,0,0,74.576,11.5ZM42.311,45.915a8.6,8.6,0,1,1,8.6-8.6A8.607,8.607,0,0,1,42.311,45.915Z" transform="translate(125.462 79.838)" fill="#747373"/>
  </g>
</svg>
