<svg xmlns="http://www.w3.org/2000/svg" width="24.254" height="27.063" viewBox="0 0 24.254 27.063">
  <g id="writing" transform="translate(-26.57)">
    <g id="Group_1667" data-name="Group 1667" transform="translate(26.57)">
      <g id="Group_1666" data-name="Group 1666" transform="translate(0)">
        <path id="Path_7007" data-name="Path 7007" d="M119.462,201.057A1.057,1.057,0,0,0,118.4,200H107.516a1.057,1.057,0,1,0,0,2.114H118.4A1.057,1.057,0,0,0,119.462,201.057Z" transform="translate(-102.236 -189.429)" fill="#fff"/>
        <path id="Path_7008" data-name="Path 7008" d="M107.516,280a1.057,1.057,0,0,0,0,2.114h6.613a1.057,1.057,0,0,0,0-2.114Z" transform="translate(-102.236 -265.2)" fill="#fff"/>
        <path id="Path_7009" data-name="Path 7009" d="M34.334,24.948H30.8a2.117,2.117,0,0,1-2.114-2.114V4.229A2.117,2.117,0,0,1,30.8,2.114h13A2.117,2.117,0,0,1,45.91,4.229v6.5a1.057,1.057,0,0,0,2.114,0v-6.5A4.233,4.233,0,0,0,43.8,0h-13A4.233,4.233,0,0,0,26.57,4.229V22.834A4.233,4.233,0,0,0,30.8,27.063h3.536a1.057,1.057,0,0,0,0-2.114Z" transform="translate(-26.57)" fill="#fff"/>
        <path id="Path_7010" data-name="Path 7010" d="M255.32,272.952a3.175,3.175,0,0,0-4.484,0l-5.8,5.791a1.058,1.058,0,0,0-.265.441l-1.264,4.161a1.057,1.057,0,0,0,1.294,1.326l4.267-1.182a1.057,1.057,0,0,0,.465-.271l5.792-5.781A3.175,3.175,0,0,0,255.32,272.952Zm-7.089,8.573-2.147.595.628-2.068,3.916-3.907,1.5,1.5Zm5.594-5.584-.2.2-1.5-1.5.2-.2a1.057,1.057,0,0,1,1.5,1.494Z" transform="translate(-231.993 -257.646)" fill="#fff"/>
        <path id="Path_7011" data-name="Path 7011" d="M118.4,120H107.516a1.057,1.057,0,1,0,0,2.114H118.4a1.057,1.057,0,1,0,0-2.114Z" transform="translate(-102.236 -113.657)" fill="#fff"/>
      </g>
    </g>
  </g>
</svg>
