<svg xmlns="http://www.w3.org/2000/svg" width="42" height="42" viewBox="0 0 42 42">
  <path id="globe" d="M35.846,6.154a21,21,0,1,0,0,29.692A20.984,20.984,0,0,0,35.846,6.154Zm-.878,26.7a21.045,21.045,0,0,0-3.136-2.322A33.955,33.955,0,0,0,33.1,22.337h6.173A18.153,18.153,0,0,1,34.968,32.853ZM2.729,22.337H8.9a33.955,33.955,0,0,0,1.267,8.193,21.045,21.045,0,0,0-3.136,2.322A18.154,18.154,0,0,1,2.729,22.337Zm4.3-13.191a21.045,21.045,0,0,0,3.136,2.322A33.956,33.956,0,0,0,8.9,19.662H2.729A18.154,18.154,0,0,1,7.032,9.146Zm12.63,2.6a18.177,18.177,0,0,1-6.237-1.58c1.134-2.921,3.226-6.425,6.237-7.293Zm0,2.681v5.235H11.578a31.524,31.524,0,0,1,1.015-6.937A20.855,20.855,0,0,0,19.662,14.426Zm0,7.911v5.235a20.855,20.855,0,0,0-7.069,1.7,31.524,31.524,0,0,1-1.015-6.937Zm0,7.916v8.873c-3.011-.868-5.1-4.371-6.237-7.293A18.177,18.177,0,0,1,19.662,30.254Zm2.676,0a18.177,18.177,0,0,1,6.237,1.58c-1.134,2.921-3.226,6.425-6.237,7.293Zm0-2.681V22.337h8.084a31.523,31.523,0,0,1-1.015,6.937A20.855,20.855,0,0,0,22.338,27.573Zm0-7.911V14.426a20.855,20.855,0,0,0,7.069-1.7,31.523,31.523,0,0,1,1.015,6.937Zm0-7.916V2.872c3.011.868,5.1,4.372,6.237,7.293A18.179,18.179,0,0,1,22.338,11.745Zm6.01-7.537A18.239,18.239,0,0,1,33.09,7.237a18.389,18.389,0,0,1-2.152,1.634,20.144,20.144,0,0,0-2.59-4.662ZM11.062,8.871A18.4,18.4,0,0,1,8.91,7.237a18.239,18.239,0,0,1,4.743-3.029,20.15,20.15,0,0,0-2.59,4.662Zm0,24.258a20.145,20.145,0,0,0,2.59,4.662A18.239,18.239,0,0,1,8.91,34.762,18.39,18.39,0,0,1,11.062,33.129Zm19.876,0a18.4,18.4,0,0,1,2.152,1.634,18.239,18.239,0,0,1-4.743,3.029,20.143,20.143,0,0,0,2.59-4.662ZM33.1,19.662a33.955,33.955,0,0,0-1.267-8.193,21.05,21.05,0,0,0,3.136-2.322,18.154,18.154,0,0,1,4.3,10.515Z" transform="translate(0 0)" fill="#6e6969"/>
</svg>
