<svg id="Group_1470" data-name="Group 1470" xmlns="http://www.w3.org/2000/svg" width="42" height="42" viewBox="0 0 42 42">
  <path id="Path_419" data-name="Path 419" d="M176.453,141.381a8.482,8.482,0,0,0-4.862-4.861,14.173,14.173,0,0,0-4.756-.881c-2.7-.123-3.512-.15-10.351-.15s-7.65.026-10.351.149a14.183,14.183,0,0,0-4.756.882,8.486,8.486,0,0,0-4.862,4.861,14.181,14.181,0,0,0-.881,4.757c-.123,2.7-.15,3.511-.15,10.351s.027,7.649.15,10.351a14.174,14.174,0,0,0,.881,4.756,8.481,8.481,0,0,0,4.862,4.861,14.154,14.154,0,0,0,4.757.882c2.7.123,3.51.149,10.35.149s7.651-.026,10.351-.149a14.155,14.155,0,0,0,4.757-.882,8.483,8.483,0,0,0,4.862-4.861,14.186,14.186,0,0,0,.882-4.756c.123-2.7.149-3.512.149-10.351s-.026-7.65-.149-10.351A14.155,14.155,0,0,0,176.453,141.381Zm-19.968,28.26a13.153,13.153,0,1,1,13.153-13.153A13.153,13.153,0,0,1,156.484,169.641Zm13.674-23.753a3.074,3.074,0,1,1,3.074-3.074A3.074,3.074,0,0,1,170.158,145.888Z" transform="translate(-135.484 -135.488)" fill="#505050"/>
  <path id="Path_420" data-name="Path 420" d="M223.327,215.163A8.163,8.163,0,1,1,215.163,207,8.163,8.163,0,0,1,223.327,215.163Z" transform="translate(-194.163 -194.163)" fill="#505050"/>
</svg>
