<svg xmlns="http://www.w3.org/2000/svg" width="42" height="42" viewBox="0 0 42 42">
  <path id="twitter_1_" data-name="twitter (1)" d="M21,0A21,21,0,1,0,42,21,21,21,0,0,0,21,0Zm9.588,16.374q.014.31.014.623A13.621,13.621,0,0,1,16.888,30.711h0A13.644,13.644,0,0,1,9.5,28.546a9.8,9.8,0,0,0,1.15.067,9.672,9.672,0,0,0,5.987-2.063,4.825,4.825,0,0,1-4.5-3.348,4.8,4.8,0,0,0,2.177-.083,4.821,4.821,0,0,1-3.867-4.725c0-.022,0-.041,0-.062a4.787,4.787,0,0,0,2.183.6A4.824,4.824,0,0,1,11.134,12.5a13.685,13.685,0,0,0,9.935,5.036,4.823,4.823,0,0,1,8.214-4.4,9.668,9.668,0,0,0,3.061-1.17,4.839,4.839,0,0,1-2.12,2.666,9.613,9.613,0,0,0,2.768-.759A9.8,9.8,0,0,1,30.588,16.374Zm0,0" fill="#505050"/>
</svg>
