<svg id="Group_304" data-name="Group 304" xmlns="http://www.w3.org/2000/svg" width="37.525" height="37.522" viewBox="0 0 37.525 37.522">
  <g id="Group_297" data-name="Group 297" transform="translate(11.195 28.132)">
    <g id="Group_296" data-name="Group 296">
      <path id="Path_182" data-name="Path 182" d="M154.2,384.447a.767.767,0,0,0-.042-.138.744.744,0,0,0-.067-.126.713.713,0,0,0-.2-.2.725.725,0,0,0-.127-.067.691.691,0,0,0-.137-.042.722.722,0,0,0-.286,0,.713.713,0,0,0-.138.042.744.744,0,0,0-.126.067.732.732,0,0,0-.27.328.711.711,0,0,0-.042.138.7.7,0,0,0,0,.286.689.689,0,0,0,.042.137.679.679,0,0,0,.067.127.714.714,0,0,0,.2.2.74.74,0,0,0,.126.068.711.711,0,0,0,.138.042.7.7,0,0,0,.286,0,.689.689,0,0,0,.137-.042.727.727,0,0,0,.127-.068.713.713,0,0,0,.2-.2.724.724,0,0,0,.067-.127.742.742,0,0,0,.042-.137.7.7,0,0,0,0-.286Z" transform="translate(-152.75 -383.857)" fill="#676767"/>
    </g>
  </g>
  <g id="Group_299" data-name="Group 299" transform="translate(0 22.713)">
    <g id="Group_298" data-name="Group 298">
      <path id="Path_183" data-name="Path 183" d="M33.714,316.156l-.009-.022c-.675-1.578-2.257-2.162-4.129-1.522l-5.106,1.412a3.347,3.347,0,0,0-2.073-2.041l-.019-.007-5.613-1.9a5.789,5.789,0,0,0-4.67-2.149,5.861,5.861,0,0,0-4.578,2.745H.733A.733.733,0,0,0,0,313.4v9.24a.733.733,0,0,0,.733.733H5.091a.733.733,0,0,0,.733-.733v-.633H7.867a.733.733,0,0,0,.733-.733v-.211a5.2,5.2,0,0,1,2.677.961,44.359,44.359,0,0,0,4.4,2.248l.032.014a6.579,6.579,0,0,0,2.358.445,5.842,5.842,0,0,0,2.428-.52l11.286-4.041c.02-.007.04-.015.059-.024A3.128,3.128,0,0,0,33.714,316.156ZM4.358,321.908H1.466v-7.775H4.358Zm2.777-1.366H5.824v-6.409H7.134Zm24.124-1.74-11.281,4.039-.033.013-.03.013a4.751,4.751,0,0,1-3.65.062,42.452,42.452,0,0,1-4.255-2.174A6.6,6.6,0,0,0,8.6,319.6v-5.9a4.526,4.526,0,0,1,3.494-2.3,4.229,4.229,0,0,1,3.588,1.685.733.733,0,0,0,.389.31L21.9,315.36a1.644,1.644,0,0,1,1.2,1.94,1.428,1.428,0,0,1-1.755.986l-6.566-2.081a.733.733,0,0,0-.443,1.4l6.578,2.084.021.006a2.877,2.877,0,0,0,2.2-.256A2.875,2.875,0,0,0,24.5,317.7q.025-.089.045-.178L30.05,316c.795-.271,1.838-.369,2.3.7C32.833,317.956,31.583,318.646,31.259,318.8Z" transform="translate(0 -309.922)" fill="#676767"/>
    </g>
  </g>
  <g id="Group_301" data-name="Group 301" transform="translate(24.864 9.05)">
    <g id="Group_300" data-name="Group 300">
      <path id="Path_184" data-name="Path 184" d="M340.7,124.088a.713.713,0,0,0-.042-.138.723.723,0,0,0-.27-.328.744.744,0,0,0-.126-.067.73.73,0,0,0-.424-.042.689.689,0,0,0-.137.042.722.722,0,0,0-.127.067.712.712,0,0,0-.2.2.742.742,0,0,0-.067.126.709.709,0,0,0-.042.138.7.7,0,0,0,0,.286.687.687,0,0,0,.042.137.721.721,0,0,0,.067.127.712.712,0,0,0,.2.2.723.723,0,0,0,.127.067.741.741,0,0,0,.137.042.722.722,0,0,0,.143.015.735.735,0,0,0,.144-.015.776.776,0,0,0,.137-.042.744.744,0,0,0,.126-.067.712.712,0,0,0,.2-.2.681.681,0,0,0,.067-.127.691.691,0,0,0,.042-.137.741.741,0,0,0,0-.286Z" transform="translate(-339.25 -123.498)" fill="#676767"/>
    </g>
  </g>
  <g id="Group_303" data-name="Group 303" transform="translate(2.176 0)">
    <g id="Group_302" data-name="Group 302">
      <path id="Path_185" data-name="Path 185" d="M64.307,2.505H59.949a.733.733,0,0,0-.733.733v.633H57.173a.733.733,0,0,0-.733.733v.211a5.2,5.2,0,0,1-2.677-.961,44.348,44.348,0,0,0-4.4-2.248l-.032-.014a6.235,6.235,0,0,0-4.786.075L41.592,2.724,39.106.238a.733.733,0,0,0-1.036,0L29.908,8.4a.727.727,0,0,0,0,1.037L43.855,23.382a.792.792,0,0,0,1.037,0l7.451-7.451c.194.017.395.026.6.026a5.861,5.861,0,0,0,4.578-2.745h6.784a.733.733,0,0,0,.733-.733V3.238A.733.733,0,0,0,64.307,2.505ZM38.588,1.793l1.67,1.67a3.2,3.2,0,0,1-3.341,0Zm-5.455,8.8-1.67-1.671,1.67-1.67a3.2,3.2,0,0,1,0,3.341ZM44.373,21.828l-1.67-1.67a3.191,3.191,0,0,1,3.34,0ZM47.1,19.1a4.658,4.658,0,0,0-5.452,0l-7.457-7.458a4.658,4.658,0,0,0,0-5.453l1.672-1.672a4.658,4.658,0,0,0,5.453,0L42.9,6.1a2.9,2.9,0,0,0-2.181,1.6,4.177,4.177,0,1,0,4.8,5.171l2.475.84a4.679,4.679,0,0,0,.776,3.715ZM42.643,11.9l.019.007,1.466.5a2.712,2.712,0,1,1-3.681-3.1A3.245,3.245,0,0,0,42.643,11.9Zm7.186,4.476a3.206,3.206,0,0,1-.468-1.524,5.7,5.7,0,0,0,1.293.7Zm6.611-4.185a4.526,4.526,0,0,1-3.494,2.3,5.334,5.334,0,0,1-.765-.054h0a4.2,4.2,0,0,1-2.715-1.486c-.015-.022-.079-.105-.088-.119a.73.73,0,0,0-.4-.336l-5.827-1.978a1.645,1.645,0,0,1-1.2-1.94v0A1.428,1.428,0,0,1,43.7,7.592l6.566,2.081a.733.733,0,0,0,.443-1.4L45.489,6.621l-.046-.046h0l-2.7-2.7,2.324-.832.025-.01.008,0,.03-.013a4.75,4.75,0,0,1,3.65-.062A42.456,42.456,0,0,1,53.03,5.124a6.6,6.6,0,0,0,3.409,1.16Zm2.777-.441H57.906V5.337h1.311Zm4.358,0H60.682V3.971h2.892Z" transform="translate(-29.691 -0.023)" fill="#676767"/>
    </g>
  </g>
</svg>
