<svg id="Group_313" data-name="Group 313" xmlns="http://www.w3.org/2000/svg" width="38.939" height="38.939" viewBox="0 0 38.939 38.939">
  <g id="Group_306" data-name="Group 306" transform="translate(0 0)">
    <g id="Group_305" data-name="Group 305">
      <path id="Path_186" data-name="Path 186" d="M0,2.658A2.638,2.638,0,0,1,2.652.006,2.658,2.658,0,0,1,4.532.79c.213.213.6.673.812.928a.631.631,0,1,1-.971.806c-.332-.4-.606-.715-.734-.842a1.4,1.4,0,0,0-.993-.415H2.641A1.376,1.376,0,0,0,1.262,2.653a1.4,1.4,0,0,0,.415.992A22.542,22.542,0,0,0,3.906,5.352,4,4,0,0,1,7.357,3.367h9.238a4.638,4.638,0,0,1,3.3,1.367L38.36,23.2a1.977,1.977,0,0,1,0,2.8L25.989,38.366a1.979,1.979,0,0,1-2.8,0L4.728,19.9a4.638,4.638,0,0,1-1.367-3.3V7.362a3.994,3.994,0,0,1,.08-.8A24.144,24.144,0,0,1,.785,4.537,2.657,2.657,0,0,1,0,2.658ZM4.623,16.6a3.384,3.384,0,0,0,1,2.409L24.086,37.474a.716.716,0,0,0,1.011,0L37.468,25.1a.715.715,0,0,0,0-1.011L19,5.627a3.385,3.385,0,0,0-2.409-1H7.357a2.736,2.736,0,0,0-2.4,1.434C5.7,6.557,6.531,7.081,7.417,7.6c.028-.03.056-.06.085-.09a2.653,2.653,0,1,1-.687,1.2c-.77-.448-1.509-.906-2.191-1.349,0,0,0,0,0,.006V16.6ZM9.939,9.665a.63.63,0,0,1-.847.28q-.555-.279-1.1-.578A1.388,1.388,0,1,0,8.574,8.25q.536.291,1.085.568A.63.63,0,0,1,9.939,9.665Z" transform="translate(0 -0.006)" fill="#676767"/>
    </g>
  </g>
  <g id="Group_308" data-name="Group 308" transform="translate(19.511 12.85)">
    <g id="Group_307" data-name="Group 307" transform="translate(0)">
      <path id="Path_187" data-name="Path 187" d="M239.5,168.962a.631.631,0,0,1,.631.631v13.323a.631.631,0,0,1-1.262,0V169.593A.631.631,0,0,1,239.5,168.962Z" transform="translate(-238.867 -168.962)" fill="#676767"/>
    </g>
  </g>
  <g id="Group_310" data-name="Group 310" transform="translate(22.25 17.494)">
    <g id="Group_309" data-name="Group 309" transform="translate(0)">
      <path id="Path_188" data-name="Path 188" d="M150.551,230.8a2.649,2.649,0,1,1-.776,1.874A2.652,2.652,0,0,1,150.551,230.8Zm.892,2.855a1.388,1.388,0,1,0-.407-.981A1.389,1.389,0,0,0,151.443,233.653Z" transform="translate(-149.775 -230.024)" fill="#676767"/>
    </g>
  </g>
  <g id="Group_312" data-name="Group 312" transform="translate(12.735 17.494)">
    <g id="Group_311" data-name="Group 311">
      <path id="Path_189" data-name="Path 189" d="M275.679,230.8a2.648,2.648,0,1,1,0,3.747A2.652,2.652,0,0,1,275.679,230.8Zm.892,2.855a1.387,1.387,0,1,0,0-1.963A1.389,1.389,0,0,0,276.571,233.653Z" transform="translate(-274.904 -230.024)" fill="#676767"/>
    </g>
  </g>
</svg>
