<svg xmlns="http://www.w3.org/2000/svg" width="38.37" height="34.338" viewBox="0 0 38.37 34.338">
  <g id="wallet_1_" data-name="wallet (1)" transform="translate(0 -26.656)">
    <path id="Path_12620" data-name="Path 12620" d="M34.589,31.434a5.187,5.187,0,0,0-5.164-4.778H5.182A5.188,5.188,0,0,0,0,31.838V55.812a5.188,5.188,0,0,0,5.182,5.182H33.189a5.188,5.188,0,0,0,5.182-5.182V36.422a5.19,5.19,0,0,0-3.781-4.988ZM5.182,29.077H29.425a2.765,2.765,0,0,1,2.7,2.164H5.182a5.149,5.149,0,0,0-2.761.8v-.2A2.764,2.764,0,0,1,5.182,29.077Zm28.007,29.5H5.182a2.764,2.764,0,0,1-2.761-2.761V36.422a2.764,2.764,0,0,1,2.761-2.761H33.189a2.764,2.764,0,0,1,2.761,2.761v4.224H28.232a5.546,5.546,0,0,0,0,11.093H35.95v4.073A2.764,2.764,0,0,1,33.189,58.573Zm2.761-9.255H28.232a3.126,3.126,0,0,1,0-6.252H35.95Z" fill="#6e6969"/>
    <circle id="Ellipse_55" data-name="Ellipse 55" cx="1.26" cy="1.26" r="1.26" transform="translate(27.421 45.024)" fill="#6e6969"/>
  </g>
</svg>
