<svg xmlns="http://www.w3.org/2000/svg" width="15.732" height="16.396" viewBox="0 0 15.732 16.396">
  <g id="discount_2_" data-name="discount (2)" transform="translate(-10.359 0.002)">
    <g id="Group_1517" data-name="Group 1517" transform="translate(10.359 -0.002)">
      <g id="Group_1516" data-name="Group 1516" transform="translate(0)">
        <path id="Path_6957" data-name="Path 6957" d="M25.333,8.408a.48.48,0,0,1,0-.425l.611-1.251a1.423,1.423,0,0,0-.614-1.89L24.1,4.19a.48.48,0,0,1-.25-.344L23.61,2.475A1.423,1.423,0,0,0,22,1.307l-1.379.2a.48.48,0,0,1-.4-.131l-1-.968a1.423,1.423,0,0,0-1.987,0l-1,.968a.481.481,0,0,1-.4.131l-1.379-.2A1.423,1.423,0,0,0,12.84,2.475L12.6,3.846a.481.481,0,0,1-.25.344l-1.23.653a1.423,1.423,0,0,0-.614,1.89l.611,1.251a.48.48,0,0,1,0,.425l-.611,1.251a1.423,1.423,0,0,0,.614,1.89l1.23.653a.48.48,0,0,1,.25.344l.241,1.371a1.422,1.422,0,0,0,1.4,1.183,1.462,1.462,0,0,0,.2-.014l1.379-.2a.48.48,0,0,1,.4.131l1,.968a1.423,1.423,0,0,0,1.987,0l1-.968a.481.481,0,0,1,.4-.131l1.379.2a1.423,1.423,0,0,0,1.608-1.168l.241-1.371a.481.481,0,0,1,.25-.344l1.23-.653a1.423,1.423,0,0,0,.614-1.89Zm-9-4.468A1.734,1.734,0,1,1,14.6,5.674,1.736,1.736,0,0,1,16.334,3.941Zm-.895,7.71a.473.473,0,0,1-.669-.669l6.241-6.241a.473.473,0,0,1,.669.669Zm4.677.8a1.734,1.734,0,1,1,1.734-1.734A1.736,1.736,0,0,1,20.116,12.451Z" transform="translate(-10.359 0.002)" fill="#6e6969"/>
      </g>
    </g>
    <g id="Group_1519" data-name="Group 1519" transform="translate(19.328 9.93)">
      <g id="Group_1518" data-name="Group 1518">
        <path id="Path_6958" data-name="Path 6958" d="M291.24,310.141a.788.788,0,1,0,.788.788A.789.789,0,0,0,291.24,310.141Z" transform="translate(-290.452 -310.141)" fill="#6e6969"/>
      </g>
    </g>
    <g id="Group_1521" data-name="Group 1521" transform="translate(15.546 4.886)">
      <g id="Group_1520" data-name="Group 1520">
        <path id="Path_6959" data-name="Path 6959" d="M173.121,152.646a.788.788,0,1,0,.788.788A.789.789,0,0,0,173.121,152.646Z" transform="translate(-172.333 -152.646)" fill="#6e6969"/>
      </g>
    </g>
  </g>
</svg>
