<svg xmlns="http://www.w3.org/2000/svg" width="16.519" height="15.582" viewBox="0 0 16.519 15.582">
  <g id="male-user-shadow" transform="translate(0 -7.045)">
    <g id="Group_1429" data-name="Group 1429" transform="translate(0 7.045)">
      <path id="Path_6924" data-name="Path 6924" d="M.662,143.11H15.857a.688.688,0,0,0,.519-.227.56.56,0,0,0,.138-.447,8.359,8.359,0,0,0-4.4-6.322,5.445,5.445,0,0,1-7.709,0A8.357,8.357,0,0,0,0,142.435a.561.561,0,0,0,.138.447A.688.688,0,0,0,.662,143.11Z" transform="translate(0 -127.528)" fill="#6e6969"/>
      <path id="Path_6925" data-name="Path 6925" d="M54.365,15.03c.089.093.181.182.277.267a4.7,4.7,0,0,0,6.293,0c.1-.086.189-.174.277-.267s.174-.188.255-.288a4.73,4.73,0,1,0-7.359,0C54.191,14.842,54.277,14.936,54.365,15.03Z" transform="translate(-49.53 -7.045)" fill="#6e6969"/>
    </g>
  </g>
</svg>
