<svg xmlns="http://www.w3.org/2000/svg" width="15.538" height="16" viewBox="0 0 15.538 16">
  <g id="discount_2_" data-name="discount (2)" transform="translate(-10.359 0.002)">
    <g id="Group_1517" data-name="Group 1517" transform="translate(10.359 -0.002)">
      <g id="Group_1516" data-name="Group 1516" transform="translate(0)">
        <path id="Path_6957" data-name="Path 6957" d="M25.148,8.205a.464.464,0,0,1,0-.414l.6-1.221a1.381,1.381,0,0,0-.607-1.844L23.93,4.089a.469.469,0,0,1-.247-.335l-.238-1.338a1.4,1.4,0,0,0-1.588-1.14l-1.362.19a.478.478,0,0,1-.4-.128L19.109.393a1.418,1.418,0,0,0-1.963,0l-.988.945a.478.478,0,0,1-.4.128L14.4,1.275a1.4,1.4,0,0,0-1.588,1.14l-.238,1.338a.469.469,0,0,1-.247.335l-1.215.637A1.381,1.381,0,0,0,10.5,6.57l.6,1.221a.464.464,0,0,1,0,.414l-.6,1.221a1.381,1.381,0,0,0,.607,1.844l1.215.637a.469.469,0,0,1,.247.335l.238,1.338A1.4,1.4,0,0,0,14.2,14.735a1.462,1.462,0,0,0,.2-.014l1.362-.19a.478.478,0,0,1,.4.128l.988.945a1.418,1.418,0,0,0,1.963,0l.988-.945a.479.479,0,0,1,.4-.128l1.362.19a1.4,1.4,0,0,0,1.588-1.14l.238-1.338a.469.469,0,0,1,.247-.335l1.215-.637a1.381,1.381,0,0,0,.607-1.844ZM16.26,3.846a1.692,1.692,0,1,1-1.712,1.692A1.7,1.7,0,0,1,16.26,3.846Zm-.884,7.524a.471.471,0,0,1-.66,0,.458.458,0,0,1,0-.653l6.164-6.09a.471.471,0,0,1,.66,0,.458.458,0,0,1,0,.653Zm4.62.781a1.692,1.692,0,1,1,1.712-1.692A1.7,1.7,0,0,1,20,12.151Z" transform="translate(-10.359 0.002)" fill="#6e6969"/>
      </g>
    </g>
    <g id="Group_1519" data-name="Group 1519" transform="translate(19.217 9.69)">
      <g id="Group_1518" data-name="Group 1518">
        <path id="Path_6958" data-name="Path 6958" d="M291.23,310.141a.769.769,0,1,0,.778.769A.775.775,0,0,0,291.23,310.141Z" transform="translate(-290.452 -310.141)" fill="#6e6969"/>
      </g>
    </g>
    <g id="Group_1521" data-name="Group 1521" transform="translate(15.482 4.768)">
      <g id="Group_1520" data-name="Group 1520">
        <path id="Path_6959" data-name="Path 6959" d="M173.111,152.646a.769.769,0,1,0,.778.769A.775.775,0,0,0,173.111,152.646Z" transform="translate(-172.333 -152.646)" fill="#6e6969"/>
      </g>
    </g>
  </g>
</svg>
