<svg xmlns="http://www.w3.org/2000/svg" width="13.384" height="13.384" viewBox="0 0 13.384 13.384"><defs><style>.a{fill:#6e6969;}</style></defs><g transform="translate(0.225)"><path class="a" d="M10.763,0a1.174,1.174,0,0,0-.979.524L8.712,2.132a1.933,1.933,0,0,0-.1.221h6.075V0Z" transform="translate(-8.608)"/></g><g transform="translate(7.084)"><path class="a" d="M276.971,2.132,275.9.524a1.22,1.22,0,0,0-1-.524H271V2.353h6.075A1.937,1.937,0,0,0,276.971,2.132Z" transform="translate(-271)"/></g><g transform="translate(0 3.137)"><path class="a" d="M13.372,120H.012c0,.028-.012.054-.012.083v8.988a1.178,1.178,0,0,0,1.176,1.176H12.208a1.178,1.178,0,0,0,1.176-1.176v-8.988C13.384,120.054,13.373,120.028,13.372,120Zm-5.111,3.921H5.124a1.176,1.176,0,1,1,0-2.353H8.261a1.176,1.176,0,1,1,0,2.353Z" transform="translate(0 -120)"/></g></svg>