<svg xmlns="http://www.w3.org/2000/svg" width="24.94" height="21.92" viewBox="0 0 24.94 21.92"><defs><style>.a{fill:#6d6e71;}</style></defs><path class="a" d="M8.086,14.613h13.2a.728.728,0,0,0,.7-.53L24.911,3.854a.73.73,0,0,0-.7-.931H6.4L5.877.572A.731.731,0,0,0,5.163,0H.731a.731.731,0,1,0,0,1.461H4.577L7.215,13.334a2.191,2.191,0,0,0,.871,4.2h13.2a.731.731,0,1,0,0-1.461H8.086a.731.731,0,0,1,0-1.461Zm0,0"/><path class="a" d="M151,362.2A2.192,2.192,0,1,0,153.192,360,2.194,2.194,0,0,0,151,362.2Zm0,0" transform="translate(-143.645 -342.468)"/><path class="a" d="M362,362.2A2.192,2.192,0,1,0,364.2,360,2.194,2.194,0,0,0,362,362.2Zm0,0" transform="translate(-344.371 -342.468)"/></svg>