<svg xmlns="http://www.w3.org/2000/svg" width="17.695" height="16" viewBox="0 0 17.695 16">
  <g id="wallet" transform="translate(0 -1)">
    <path id="Path_6921" data-name="Path 6921" d="M14.736,3.916,13.171,1.271a.553.553,0,0,0-.34-.254.566.566,0,0,0-.422.06L7.624,3.909Z" transform="translate(-2.003)" fill="#6e6969"/>
    <path id="Path_6922" data-name="Path 6922" d="M2.212,4.909a.727.727,0,1,1,0-1.455H4.7L7.159,2H2.212A2.2,2.2,0,0,0,.037,3.818.724.724,0,0,0,0,4V15.091a2.2,2.2,0,0,0,2.212,2.182H14.746a1.469,1.469,0,0,0,1.475-1.455V14.364H14.377a3.273,3.273,0,1,1,0-6.546h1.843V6.364a1.469,1.469,0,0,0-1.475-1.455Zm11.8-1.455a1.459,1.459,0,0,0-1.276-1.44l1.276,2.167Z" transform="translate(0 -0.273)" fill="#6e6969"/>
    <path id="Path_6923" data-name="Path 6923" d="M21.477,11.5H18.712a2.182,2.182,0,1,0,0,4.364h2.765a.549.549,0,0,0,.553-.545V12.045A.549.549,0,0,0,21.477,11.5Zm-2.765,2.909a.727.727,0,1,1,.737-.727A.733.733,0,0,1,18.712,14.409Z" transform="translate(-4.334 -2.863)" fill="#6e6969"/>
  </g>
</svg>
