<svg id="supermarket" xmlns="http://www.w3.org/2000/svg" width="43.167" height="37.94" viewBox="0 0 43.167 37.94">
  <path id="Path_3" data-name="Path 3" d="M14,25.293H36.844a1.261,1.261,0,0,0,1.215-.918L43.118,6.67A1.263,1.263,0,0,0,41.9,5.059H11.076l-.9-4.068A1.265,1.265,0,0,0,8.937,0H1.265a1.265,1.265,0,0,0,0,2.529H7.922l4.567,20.55A3.792,3.792,0,0,0,14,30.352H36.844a1.265,1.265,0,0,0,0-2.529H14a1.265,1.265,0,1,1,0-2.529Zm0,0" transform="translate(0)" fill="#f5f5f5"/>
  <path id="Path_4" data-name="Path 4" d="M151,363.8A3.794,3.794,0,1,0,154.794,360,3.8,3.8,0,0,0,151,363.8Zm0,0" transform="translate(-138.269 -329.652)" fill="#f5f5f5"/>
  <path id="Path_5" data-name="Path 5" d="M362,363.8A3.794,3.794,0,1,0,365.8,360,3.8,3.8,0,0,0,362,363.8Zm0,0" transform="translate(-331.484 -329.652)" fill="#f5f5f5"/>
</svg>
