<svg xmlns="http://www.w3.org/2000/svg" width="16.191" height="19.928" viewBox="0 0 16.191 19.928">
  <g id="Group_1492" data-name="Group 1492" transform="translate(210.279 -16.073) rotate(90)">
    <g id="delete" transform="translate(16.073 210.279) rotate(-90)">
      <path id="Path_475" data-name="Path 475" d="M14.634,2.491H11.209V1.868A1.868,1.868,0,0,0,9.341,0H6.85A1.868,1.868,0,0,0,4.982,1.868v.623H1.557A1.557,1.557,0,0,0,0,4.048V5.293a.623.623,0,0,0,.623.623H15.569a.623.623,0,0,0,.623-.623V4.048A1.557,1.557,0,0,0,14.634,2.491ZM6.227,1.868a.624.624,0,0,1,.623-.623H9.341a.624.624,0,0,1,.623.623v.623H6.227Z" fill="#66e69e"/>
      <path id="Path_476" data-name="Path 476" d="M.195,0A.2.2,0,0,0,0,.2L.514,10.987A1.866,1.866,0,0,0,2.38,12.766h9.457A1.866,1.866,0,0,0,13.7,10.987L14.217.2a.2.2,0,0,0-.194-.2ZM9.6,1.557a.623.623,0,0,1,1.245,0v8.1a.623.623,0,1,1-1.245,0Zm-3.114,0a.623.623,0,0,1,1.245,0v8.1a.623.623,0,1,1-1.245,0Zm-3.114,0a.623.623,0,0,1,1.245,0v8.1a.623.623,0,1,1-1.245,0Z" transform="translate(0.987 7.162)" fill="#66e69e"/>
    </g>
  </g>
</svg>
