<svg xmlns="http://www.w3.org/2000/svg" width="34" height="34" viewBox="0 0 34 34">
  <g id="Group_2104" data-name="Group 2104" transform="translate(-7680 -1856)">
    <g id="Ellipse_49" data-name="Ellipse 49" transform="translate(7680 1856)" fill="#fff" stroke="#707070" stroke-width="1">
      <circle cx="17" cy="17" r="17" stroke="none"/>
      <circle cx="17" cy="17" r="16.5" fill="none"/>
    </g>
    <g id="XMLID_1321_" transform="translate(7684.37 1806.613)">
      <g id="XMLID_396_" transform="translate(0 57.647)">
        <path id="XMLID_429_" d="M25.1,64.3l-.658-1.14a.493.493,0,1,0-.855.493l.658,1.14a.192.192,0,0,1-.07.263l-1.74,1a.193.193,0,0,1-.263-.071l-3.5-6.063a.193.193,0,0,1,.07-.263l1.74-1a.193.193,0,0,1,.263.07l.622,1.078a.493.493,0,1,0,.855-.493L21.6,58.237a1.181,1.181,0,0,0-1.611-.432l-1.74,1a1.175,1.175,0,0,0-.533.663H12.785a2.576,2.576,0,0,0-1.833.759l-.505.505a5.837,5.837,0,0,0-1.354-.16H7.561a1.176,1.176,0,0,0-.551-.726l-1.74-1a1.179,1.179,0,0,0-1.611.432l-3.5,6.063A1.179,1.179,0,0,0,.59,66.952l1.74,1a1.172,1.172,0,0,0,.588.158,1.186,1.186,0,0,0,.217-.02l1.424,1.424a1.8,1.8,0,0,0-.033.343A1.773,1.773,0,0,0,6.2,71.633a1.8,1.8,0,0,0-.01.187A1.775,1.775,0,0,0,7.966,73.6H8c0,.013,0,.026,0,.038a1.775,1.775,0,0,0,1.775,1.775h.038c0,.013,0,.026,0,.038a1.775,1.775,0,0,0,3.03,1.255l.7-.7a1.764,1.764,0,0,0,.433-.71,1.776,1.776,0,0,0,2.749-.9,1.776,1.776,0,0,0,2.707-1.129,1.775,1.775,0,0,0,1.815-2.94L20.1,69.166l2.1-2.1a1.187,1.187,0,0,0,.141.009,1.172,1.172,0,0,0,.588-.158l1.74-1A1.179,1.179,0,0,0,25.1,64.3ZM1.083,66.1a.193.193,0,0,1-.07-.263l3.5-6.063a.192.192,0,0,1,.117-.09.2.2,0,0,1,.05-.007.19.19,0,0,1,.1.026l1.74,1a.193.193,0,0,1,.071.263l-3.5,6.063a.193.193,0,0,1-.263.071Zm4.429,3.764a.783.783,0,0,1,.231-.557l.426-.426a.788.788,0,1,1,1.115,1.115l-.426.426a.788.788,0,0,1-1.346-.557Zm2.454,2.747a.788.788,0,0,1-.557-1.345l.7-.7a.788.788,0,1,1,1.115,1.115l-.7.7A.783.783,0,0,1,7.966,72.608Zm1.812,1.812a.788.788,0,0,1-.557-1.346l.7-.7a.788.788,0,1,1,1.115,1.115l-.7.7A.783.783,0,0,1,9.779,74.421Zm3.072.88-.7.7a.788.788,0,1,1-1.115-1.115l.7-.7A.788.788,0,1,1,12.85,75.3Zm7.7-3.171a.788.788,0,0,1-1.115,0L14.73,67.421a.493.493,0,1,0-.7.7l4.223,4.223a.788.788,0,0,1-1.115,1.115l-5.075-5.075a.493.493,0,1,0-.7.7L15.592,73.3a.788.788,0,0,1-1.115,1.115l-.929-.929,0,0a1.769,1.769,0,0,0-1.29-.514c0-.013,0-.026,0-.039a1.773,1.773,0,0,0-1.813-1.773c0-.013,0-.026,0-.039A1.774,1.774,0,0,0,8.5,69.353a1.775,1.775,0,0,0-3.028-1.171l-.426.426v0l-1.1-1.1,3.434-5.949h1.71a4.844,4.844,0,0,1,.5.026l-.564.564a1.775,1.775,0,0,0,2.51,2.51l1.332-1.332,7.683,7.683a.789.789,0,0,1,0,1.115Zm-4.74-7.25a2.8,2.8,0,0,0,1.158-2.269.493.493,0,1,0-.987,0,1.813,1.813,0,0,1-.884,1.557l-1.879-1.879a.493.493,0,0,0-.7-.005l-1.684,1.684a.788.788,0,1,1-1.115-1.115l1.922-1.922a1.6,1.6,0,0,1,1.136-.47h5.057l3.478,6.024c.008.014.017.028.026.042L19.4,68.468Z" transform="translate(0 -57.647)" fill="#505050"/>
        <path id="XMLID_436_" d="M454.8,126.4a.494.494,0,1,0-.349-.145A.5.5,0,0,0,454.8,126.4Z" transform="translate(-431.894 -122.071)" fill="#505050"/>
      </g>
    </g>
  </g>
</svg>
