<svg xmlns="http://www.w3.org/2000/svg" width="34" height="34" viewBox="0 0 34 34">
  <g id="Group_2099" data-name="Group 2099" transform="translate(-8341 -1856)">
    <g id="Ellipse_53" data-name="Ellipse 53" transform="translate(8341 1856)" fill="#fff" stroke="#6e6969" stroke-width="1">
      <circle cx="17" cy="17" r="17" stroke="none"/>
      <circle cx="17" cy="17" r="16.5" fill="none"/>
    </g>
    <g id="delivered" transform="translate(8346 1781.378)">
      <path id="Path_7028" data-name="Path 7028" d="M22.105,83.966H20.512a.329.329,0,0,1-.127,0H14.666a.316.316,0,0,1-.115,0h-.872a.335.335,0,1,0,0,.671h.651v6.327a.559.559,0,0,0,.559.559h5.272a.559.559,0,0,0,.559-.559V86.739a.335.335,0,1,0-.671,0v1.52H15V84.637h5.048v.583a.335.335,0,1,0,.671,0v-.583h1.386a.112.112,0,0,1,.112.112v12.1a.112.112,0,0,1-.112.112h-6.38a1.809,1.809,0,0,0-1.7-.759l-2.757.345-3.391-1.6H9.289a1.255,1.255,0,0,0,0-2.511H5.631V84.748a.112.112,0,0,1,.112-.112h6.416a.335.335,0,1,0,0-.671H5.743a.783.783,0,0,0-.782.782v7.689H3.482a.782.782,0,0,0-.589-.268H.784A.785.785,0,0,0,0,92.954v.878a.335.335,0,0,0,.671,0v-.878a.114.114,0,0,1,.114-.114H2.894a.114.114,0,0,1,.114.114v4.273a.563.563,0,0,1-.562.562H.784a.114.114,0,0,1-.114-.114V95.352a.335.335,0,1,0-.671,0v2.324a.785.785,0,0,0,.784.784H2.445a1.234,1.234,0,0,0,1.222-1.073l6.627,1.946a.335.335,0,0,0,.164.006L15.322,98.3a.784.784,0,0,0,.615-.673h6.168a.783.783,0,0,0,.782-.782v-12.1A.783.783,0,0,0,22.105,83.966Zm-2.056,4.963v1.922H15V88.929Zm-4.788,8.655a.112.112,0,0,1-.079.062L10.4,98.666,3.678,96.691V93.108H9.289a.585.585,0,0,1,0,1.17H6.373A1.222,1.222,0,0,0,5.259,95a.335.335,0,1,0,.612.274.551.551,0,0,1,.436-.321l4.758,2.241a.335.335,0,0,0,.184.029l2.854-.357a1.137,1.137,0,0,1,1.157.619.111.111,0,0,1,0,.1Z" transform="translate(0)" fill="#505050"/>
      <path id="Path_7029" data-name="Path 7029" d="M27.149,364.867a.335.335,0,1,0,0-.671H27.1a.335.335,0,1,0,0,.671Z" transform="translate(-25.572 -267.703)" fill="#505050"/>
      <path id="Path_7030" data-name="Path 7030" d="M350.831,150.171h2.906a.335.335,0,1,0,0-.671h-2.906a.335.335,0,0,0,0,.671Z" transform="translate(-334.828 -62.604)" fill="#505050"/>
      <path id="Path_7031" data-name="Path 7031" d="M350.831,124.171h.715a.335.335,0,0,0,0-.671h-.715a.335.335,0,0,0,0,.671Z" transform="translate(-334.828 -37.767)" fill="#505050"/>
      <path id="Path_7032" data-name="Path 7032" d="M350.831,209.171h.045a.335.335,0,0,0,0-.671h-.045a.335.335,0,0,0,0,.671Z" transform="translate(-334.828 -118.967)" fill="#505050"/>
      <path id="Path_7033" data-name="Path 7033" d="M374.331,209.171h.045a.335.335,0,1,0,0-.671h-.045a.335.335,0,0,0,0,.671Z" transform="translate(-357.277 -118.967)" fill="#505050"/>
      <path id="Path_7034" data-name="Path 7034" d="M397.831,209.171h.045a.335.335,0,0,0,0-.671h-.045a.335.335,0,1,0,0,.671Z" transform="translate(-379.727 -118.967)" fill="#505050"/>
      <path id="Path_7035" data-name="Path 7035" d="M421.331,209.171h.045a.335.335,0,0,0,0-.671h-.045a.335.335,0,0,0,0,.671Z" transform="translate(-402.176 -118.967)" fill="#505050"/>
      <path id="Path_7036" data-name="Path 7036" d="M160.014,125.96a.335.335,0,0,0,.335-.335v-.864l.2.184a.335.335,0,1,0,.459-.488l-.761-.715a.335.335,0,0,0-.459,0l-.761.715a.335.335,0,0,0,.459.488l.2-.184v.864A.335.335,0,0,0,160.014,125.96Z" transform="translate(-151.814 -37.91)" fill="#505050"/>
      <path id="Path_7037" data-name="Path 7037" d="M221.245,125.96a.335.335,0,0,0,.335-.335v-.864l.2.184a.335.335,0,1,0,.459-.488l-.761-.715a.335.335,0,0,0-.459,0l-.761.715a.335.335,0,0,0,.459.488l.2-.184v.864A.335.335,0,0,0,221.245,125.96Z" transform="translate(-210.308 -37.91)" fill="#505050"/>
      <path id="Path_7038" data-name="Path 7038" d="M156.267,201.689a.56.56,0,0,0,.486.284h1.318a.559.559,0,0,0,.479-.847l-.659-1.1a.559.559,0,0,0-.958,0l-.659,1.1A.559.559,0,0,0,156.267,201.689Zm1.145-1.154.461.767h-.923Z" transform="translate(-149.212 -110.617)" fill="#505050"/>
      <path id="Path_7039" data-name="Path 7039" d="M415.076,294.671a.335.335,0,1,0,0-.671H413.5a.335.335,0,0,0,0,.671Z" transform="translate(-394.692 -200.645)" fill="#505050"/>
      <path id="Path_7040" data-name="Path 7040" d="M320.574,320.7a.335.335,0,0,0,.335.335h5.719a.335.335,0,0,0,0-.671h-5.719A.335.335,0,0,0,320.574,320.7Z" transform="translate(-306.243 -225.829)" fill="#505050"/>
    </g>
  </g>
</svg>
