<svg xmlns="http://www.w3.org/2000/svg" width="34" height="34" viewBox="0 0 34 34">
  <g id="Group_2103" data-name="Group 2103" transform="translate(-7812 -1856)">
    <g id="Ellipse_48" data-name="Ellipse 48" transform="translate(7812 1856)" fill="#fff" stroke="#707070" stroke-width="1">
      <circle cx="17" cy="17" r="17" stroke="none"/>
      <circle cx="17" cy="17" r="16.5" fill="none"/>
    </g>
    <g id="web-design" transform="translate(7795.031 1862.403)">
      <path id="Path_7044" data-name="Path 7044" d="M41.616,2.707h-.247a1.779,1.779,0,0,0-3-1.916L37.089,2.707H26.072A1.644,1.644,0,0,0,24.43,4.349v10.5a1.644,1.644,0,0,0,1.642,1.642h6.379l-.482,2.024h-1.04a1.231,1.231,0,0,0-1.23,1.229V20H28.417a.407.407,0,1,0,0,.813H39.271a.407.407,0,1,0,0-.813H37.989v-.257a1.231,1.231,0,0,0-1.23-1.229h-1.04l-.482-2.024h6.379a1.644,1.644,0,0,0,1.642-1.642V4.349a1.644,1.644,0,0,0-1.642-1.642ZM35.791,9.854c-.636.445-1.826-.16-2.963.447-.277-1.441-.1-2.8,1.342-3.1a2.588,2.588,0,0,1,.559-.053L36.2,8.242A1.312,1.312,0,0,1,35.791,9.854ZM36.2,5.5l1.151.854-.885,1.079-1.042-.773Zm2.846-4.253a.966.966,0,1,1,1.55,1.15L37.868,5.721l-1.214-.9Zm-1.871,18.5V20H30.512v-.257a.417.417,0,0,1,.416-.416h5.83a.417.417,0,0,1,.416.416Zm-2.292-1.229H32.8l.482-2.024H34.4Zm7.562-3.667a.83.83,0,0,1-.829.829H26.072a.83.83,0,0,1-.829-.829v-1.9H26.4a.407.407,0,1,0,0-.813H25.243V4.349a.83.83,0,0,1,.829-.829H36.545L34.659,6.338a2.778,2.778,0,0,0-2.113.893c-.709.827-.833,2.127-.37,3.863a.407.407,0,0,0,.674.189c1.051-1,2.36.091,3.533-.858A2.129,2.129,0,0,0,37,8.063L40.724,3.52h.892a.83.83,0,0,1,.829.829v7.783H29.657a.407.407,0,1,0,0,.813H42.445Z" transform="translate(0 0)" fill="#505050"/>
      <path id="Path_7045" data-name="Path 7045" d="M103.362,298.431a.406.406,0,1,0,.478.319A.406.406,0,0,0,103.362,298.431Z" transform="translate(-75.41 -286.292)" fill="#505050"/>
    </g>
  </g>
</svg>
