<svg xmlns="http://www.w3.org/2000/svg" width="34" height="34" viewBox="0 0 34 34">
  <g id="Group_2101" data-name="Group 2101" transform="translate(-8077 -1856)">
    <g id="Ellipse_51" data-name="Ellipse 51" transform="translate(8077 1856)" fill="#fff" stroke="#6e6969" stroke-width="1">
      <circle cx="17" cy="17" r="17" stroke="none"/>
      <circle cx="17" cy="17" r="16.5" fill="none"/>
    </g>
    <g id="computer" transform="translate(8084.92 1864.92)">
      <path id="Path_7041" data-name="Path 7041" d="M306.35,346a.35.35,0,1,0,.35.35A.35.35,0,0,0,306.35,346Zm0,0" transform="translate(-295.292 -333.893)" fill="#505050"/>
      <path id="Path_7042" data-name="Path 7042" d="M16.166,0H1.75A1.752,1.752,0,0,0,0,1.75V12.457a1.752,1.752,0,0,0,1.75,1.75H7.208v1.61h-.35a1.75,1.75,0,0,0-1.75,1.75.35.35,0,0,0,.35.35h7a.35.35,0,0,0,.35-.35,1.752,1.752,0,0,0-1.75-1.75h-.35v-1.61h5.459a1.752,1.752,0,0,0,1.75-1.75V1.75A1.752,1.752,0,0,0,16.166,0ZM1.75.7H16.166a1.051,1.051,0,0,1,1.05,1.05v8.958h-1.61V2.659a.35.35,0,0,0-.35-.35h-2.8a.35.35,0,0,0-.35.35v8.048H10.356c0-.362-.013-.719-.028-1.065a22.508,22.508,0,0,0-.273-2.8,1.75,1.75,0,0,0,.478-2.282L9.319,2.46a.35.35,0,0,0-.606,0L7.5,4.561a1.749,1.749,0,0,0,.385,2.208A22.213,22.213,0,0,0,7.59,9.642c-.016.35-.026.707-.03,1.065H5.809V5.459a.348.348,0,0,0-.035-.151l0-.005-1.4-2.8a.35.35,0,0,0-.626,0l-1.4,2.8,0,.005a.348.348,0,0,0-.035.151v5.249H.7V1.75A1.051,1.051,0,0,1,1.75.7ZM12.807,10.708v-7.7h2.1v.7h-.35a.35.35,0,0,0,0,.7h.35v1.05h-.35a.35.35,0,0,0,0,.7h.35v1.05h-.35a.35.35,0,0,0,0,.7h.35v1.4h-.35a.35.35,0,0,0,0,.7h.35v.7ZM9.016,7.184a1.752,1.752,0,0,0,.378-.042c.065.416.16,1.153.217,2.166h-1.3c.059-1.012.159-1.76.228-2.191A1.752,1.752,0,0,0,9.016,7.184Zm0-.7a1.051,1.051,0,0,1-.91-1.574l.91-1.576.91,1.576A1.05,1.05,0,0,1,9.016,6.484Zm-.74,3.523H9.641c.007.23.012.464.015.7H8.26C8.263,10.473,8.268,10.239,8.276,10.008Zm-3.867.7v-4.9h.7v4.9Zm-1.4,0v-4.9h.7v4.9Zm.216-5.6.834-1.667.834,1.667Zm8.822,12.107H5.868a1.052,1.052,0,0,1,.99-.7h4.2A1.051,1.051,0,0,1,12.047,17.216Zm-2.04-1.4h-2.1v-1.61h2.1Zm6.159-2.309H1.75A1.051,1.051,0,0,1,.7,12.457v-1.05H17.216v1.05A1.051,1.051,0,0,1,16.166,13.507Zm0,0" fill="#505050"/>
      <path id="Path_7043" data-name="Path 7043" d="M208.449,346h-2.1a.35.35,0,0,0,0,.7h2.1a.35.35,0,1,0,0-.7Zm0,0" transform="translate(-198.792 -333.893)" fill="#505050"/>
    </g>
  </g>
</svg>
