<svg xmlns="http://www.w3.org/2000/svg" width="34" height="34" viewBox="0 0 34 34">
  <g id="Group_2100" data-name="Group 2100" transform="translate(-8209 -1856)">
    <g id="Ellipse_52" data-name="Ellipse 52" transform="translate(8209 1856)" fill="#fff" stroke="#6e6969" stroke-width="1">
      <circle cx="17" cy="17" r="17" stroke="none"/>
      <circle cx="17" cy="17" r="16.5" fill="none"/>
    </g>
    <g id="vector" transform="translate(8216.756 1864.177)">
      <g id="Group_1801" data-name="Group 1801">
        <g id="Group_1800" data-name="Group 1800">
          <path id="Path_7026" data-name="Path 7026" d="M18.509,0H16.274a.559.559,0,0,0-.559.559v.559h-4.6a1.676,1.676,0,0,0-3.16,0h-4.6V.559A.559.559,0,0,0,2.793,0H.559A.559.559,0,0,0,0,.559V2.793a.559.559,0,0,0,.559.559H2.793a.559.559,0,0,0,.559-.559V2.227H5.675A7.339,7.339,0,0,0,2.287,7.949a1.675,1.675,0,1,0,1.12.011A6.237,6.237,0,0,1,8.033,2.42a1.675,1.675,0,0,0,3,0,6.237,6.237,0,0,1,4.626,5.54,1.676,1.676,0,1,0,1.12-.011,7.326,7.326,0,0,0-3.388-5.714h2.323v.559a.559.559,0,0,0,.559.559h2.234a.559.559,0,0,0,.559-.559V.559A.559.559,0,0,0,18.509,0ZM2.234,2.234H1.117V1.117H2.234Zm.6,7.858a.559.559,0,1,1,.559-.559A.559.559,0,0,1,2.83,10.092Zm6.7-7.858a.559.559,0,1,1,.559-.559A.559.559,0,0,1,9.534,2.234Zm6.7,6.741a.559.559,0,1,1-.559.559A.559.559,0,0,1,16.237,8.975ZM17.95,2.234H16.833V1.117H17.95Z" fill="#505050"/>
        </g>
      </g>
      <g id="Group_1803" data-name="Group 1803" transform="translate(4.506 4.507)">
        <g id="Group_1802" data-name="Group 1802">
          <path id="Path_7027" data-name="Path 7027" d="M130.961,127.962l-4.469-6.7h0l0-.007-.024-.032a.559.559,0,0,0-.894.032l0,.007h0l-4.469,6.7a.559.559,0,0,0,.07.7,7.077,7.077,0,0,1,2.017,4.13,2.88,2.88,0,0,0-.25.226,2.831,2.831,0,0,0-.814,1.989.559.559,0,0,0,.559.559h6.7a.559.559,0,0,0,.559-.559,2.832,2.832,0,0,0-.814-1.989,2.869,2.869,0,0,0-.25-.226,7.076,7.076,0,0,1,2.017-4.13A.559.559,0,0,0,130.961,127.962Zm-4.934-.249a.559.559,0,1,1-.559.559A.559.559,0,0,1,126.028,127.713Zm-2.7,6.741a1.706,1.706,0,0,1,1.581-1.154h2.234a1.706,1.706,0,0,1,1.581,1.154Zm4.495-2.187a2.745,2.745,0,0,0-.679-.085H124.91a2.742,2.742,0,0,0-.679.085,8.2,8.2,0,0,0-1.961-4.056l3.2-4.8v3.279a1.676,1.676,0,1,0,1.117,0v-3.279l3.2,4.8A8.2,8.2,0,0,0,127.824,132.267Z" transform="translate(-121 -121.01)" fill="#505050"/>
        </g>
      </g>
    </g>
  </g>
</svg>
