<svg xmlns="http://www.w3.org/2000/svg" width="26" height="26" viewBox="0 0 26 26">
  <g id="Group_2088" data-name="Group 2088" transform="translate(-1793.16 -4685.964)">
    <path id="Path_419" data-name="Path 419" d="M160.846,139.136a5.251,5.251,0,0,0-3.009-3.009,8.774,8.774,0,0,0-2.944-.546c-1.672-.076-2.174-.093-6.408-.093s-4.736.016-6.408.092a8.78,8.78,0,0,0-2.944.546,5.253,5.253,0,0,0-3.01,3.009,8.778,8.778,0,0,0-.546,2.945c-.076,1.672-.093,2.173-.093,6.408s.016,4.735.093,6.408a8.774,8.774,0,0,0,.546,2.944,5.25,5.25,0,0,0,3.01,3.009,8.762,8.762,0,0,0,2.945.546c1.672.076,2.173.092,6.407.092s4.736-.016,6.408-.092a8.763,8.763,0,0,0,2.945-.546,5.251,5.251,0,0,0,3.009-3.009,8.782,8.782,0,0,0,.546-2.944c.076-1.672.092-2.174.092-6.408s-.016-4.736-.092-6.408A8.763,8.763,0,0,0,160.846,139.136ZM148.484,156.63a8.143,8.143,0,1,1,8.143-8.143A8.143,8.143,0,0,1,148.484,156.63Zm8.465-14.7a1.9,1.9,0,1,1,1.9-1.9A1.9,1.9,0,0,1,156.949,141.926Z" transform="translate(1657.676 4550.476)" fill="#fff"/>
    <g id="Group_2089" data-name="Group 2089">
      <path id="Path_420" data-name="Path 420" d="M217.261,212.13a5.13,5.13,0,1,1-5.13-5.13A5.13,5.13,0,0,1,217.261,212.13Z" transform="translate(1594.03 4486.833)" fill="#fff"/>
    </g>
  </g>
</svg>
